<svg width="105" height="104" viewBox="0 0 105 104" fill="none" xmlns="http://www.w3.org/2000/svg">
    <g filter="url(#filter0_dd_14765_5004)">
    <rect x="12.9668" y="8" width="80" height="80" rx="40" fill="white"/>
    <rect x="14.4668" y="9.5" width="77" height="77" rx="38.5" stroke="black" stroke-opacity="0.2" stroke-width="3"/>
    <path d="M37.8001 67.4998V68.5832C37.8001 69.4451 38.1425 70.2718 38.752 70.8813C39.3615 71.4908 40.1882 71.8332 41.0501 71.8332C41.9121 71.8332 42.7387 71.4908 43.3482 70.8813C43.9577 70.2718 44.3001 69.4451 44.3001 68.5832V67.4998H61.6335V68.5832C61.6335 69.4451 61.9759 70.2718 62.5854 70.8813C63.1949 71.4908 64.0215 71.8332 64.8835 71.8332C65.7454 71.8332 66.5721 71.4908 67.1816 70.8813C67.7911 70.2718 68.1335 69.4451 68.1335 68.5832V67.4998C69.2827 67.4998 70.3849 67.0433 71.1976 66.2306C72.0103 65.418 72.4668 64.3158 72.4668 63.1665V52.3332C72.4611 50.8993 71.9814 49.5075 71.1024 48.3745C70.2234 47.2416 68.9945 46.4312 67.607 46.0693L63.6896 34.3152C63.5459 33.8836 63.2699 33.5081 62.9009 33.2421C62.5318 32.9761 62.0884 32.8331 61.6335 32.8332H44.3001C43.8452 32.8331 43.4018 32.9761 43.0327 33.2421C42.6637 33.5081 42.3877 33.8836 42.244 34.3152L38.3266 46.0693C36.9391 46.4312 35.7102 47.2416 34.8312 48.3745C33.9522 49.5075 33.4725 50.8993 33.4668 52.3332V63.1665C33.4668 64.3158 33.9233 65.418 34.736 66.2306C35.5487 67.0433 36.6509 67.4998 37.8001 67.4998ZM45.8623 37.1665H60.0713L62.9616 45.8332H42.972L45.8623 37.1665ZM37.8001 52.3332C37.8001 51.7585 38.0284 51.2074 38.4347 50.8011C38.8411 50.3948 39.3922 50.1665 39.9668 50.1665H65.9668C66.5414 50.1665 67.0925 50.3948 67.4989 50.8011C67.9052 51.2074 68.1335 51.7585 68.1335 52.3332V63.1665H37.8001V52.3332ZM46.4668 26.3332C46.4668 25.7585 46.6951 25.2074 47.1014 24.8011C47.5077 24.3948 48.0588 24.1665 48.6335 24.1665H57.3001C57.8748 24.1665 58.4259 24.3948 58.8322 24.8011C59.2385 25.2074 59.4668 25.7585 59.4668 26.3332C59.4668 26.9078 59.2385 27.4589 58.8322 27.8652C58.4259 28.2716 57.8748 28.4998 57.3001 28.4998H48.6335C48.0588 28.4998 47.5077 28.2716 47.1014 27.8652C46.6951 27.4589 46.4668 26.9078 46.4668 26.3332ZM44.3001 56.6665C44.3001 57.095 44.1731 57.5139 43.935 57.8702C43.6969 58.2265 43.3585 58.5042 42.9626 58.6682C42.5667 58.8322 42.1311 58.8751 41.7108 58.7915C41.2905 58.7079 40.9044 58.5016 40.6014 58.1986C40.2984 57.8956 40.092 57.5095 40.0084 57.0892C39.9248 56.6689 39.9677 56.2333 40.1317 55.8374C40.2957 55.4414 40.5734 55.1031 40.9297 54.865C41.286 54.6269 41.7049 54.4998 42.1335 54.4998C42.7081 54.4998 43.2592 54.7281 43.6655 55.1344C44.0719 55.5408 44.3001 56.0919 44.3001 56.6665ZM65.9668 56.6665C65.9668 57.095 65.8397 57.5139 65.6017 57.8702C65.3636 58.2265 65.0252 58.5042 64.6293 58.6682C64.2334 58.8322 63.7977 58.8751 63.3774 58.7915C62.9571 58.7079 62.5711 58.5016 62.2681 58.1986C61.9651 57.8956 61.7587 57.5095 61.6751 57.0892C61.5915 56.6689 61.6344 56.2333 61.7984 55.8374C61.9624 55.4414 62.2401 55.1031 62.5964 54.865C62.9527 54.6269 63.3716 54.4998 63.8001 54.4998C64.3748 54.4998 64.9259 54.7281 65.3322 55.1344C65.7385 55.5408 65.9668 56.0919 65.9668 56.6665Z" fill="#A09999"/>
    </g>
    <defs>
    <filter id="filter0_dd_14765_5004" x="0.966797" y="0" width="104" height="104" filterUnits="userSpaceOnUse" color-interpolation-filters="sRGB">
    <feFlood flood-opacity="0" result="BackgroundImageFix"/>
    <feColorMatrix in="SourceAlpha" type="matrix" values="0 0 0 0 0 0 0 0 0 0 0 0 0 0 0 0 0 0 127 0" result="hardAlpha"/>
    <feOffset dy="4"/>
    <feGaussianBlur stdDeviation="6"/>
    <feComposite in2="hardAlpha" operator="out"/>
    <feColorMatrix type="matrix" values="0 0 0 0 0 0 0 0 0 0 0 0 0 0 0 0 0 0 0.15 0"/>
    <feBlend mode="normal" in2="BackgroundImageFix" result="effect1_dropShadow_14765_5004"/>
    <feColorMatrix in="SourceAlpha" type="matrix" values="0 0 0 0 0 0 0 0 0 0 0 0 0 0 0 0 0 0 127 0" result="hardAlpha"/>
    <feOffset dy="4"/>
    <feGaussianBlur stdDeviation="2"/>
    <feComposite in2="hardAlpha" operator="out"/>
    <feColorMatrix type="matrix" values="0 0 0 0 0 0 0 0 0 0 0 0 0 0 0 0 0 0 0.25 0"/>
    <feBlend mode="normal" in2="effect1_dropShadow_14765_5004" result="effect2_dropShadow_14765_5004"/>
    <feBlend mode="normal" in="SourceGraphic" in2="effect2_dropShadow_14765_5004" result="shape"/>
    </filter>
    </defs>
</svg>
