<svg width="105" height="104" viewBox="0 0 105 104" fill="none" xmlns="http://www.w3.org/2000/svg">
    <g filter="url(#filter0_dd_14765_4999)">
    <rect x="12.9668" y="8" width="80" height="80" rx="40" fill="white"/>
    <rect x="14.4668" y="9.5" width="77" height="77" rx="38.5" stroke="black" stroke-opacity="0.2" stroke-width="3"/>
    <path d="M31.3005 67.4998H48.6338C49.2084 67.4998 49.7595 67.2716 50.1659 66.8652C50.5722 66.4589 50.8005 65.9078 50.8005 65.3332C50.8005 64.7585 50.5722 64.2074 50.1659 63.8011C49.7595 63.3948 49.2084 63.1665 48.6338 63.1665H33.621C34.1467 59.5586 35.9526 56.2602 38.7088 53.8735C41.4651 51.4868 44.9878 50.171 48.6338 50.1665C51.185 50.1886 53.6635 49.3175 55.6399 47.704C57.6162 46.0906 58.9658 43.8365 59.4547 41.3325C59.9436 38.8285 59.541 36.2324 58.3168 33.994C57.0925 31.7556 55.1237 30.0161 52.7516 29.077C50.3794 28.1378 47.7534 28.0582 45.3287 28.8519C42.904 29.6455 40.8334 31.2625 39.4758 33.4226C38.1181 35.5827 37.559 38.1497 37.8952 40.6787C38.2315 43.2077 39.442 45.5394 41.317 47.2697C37.7207 48.7285 34.641 51.2262 32.4709 54.4436C30.3009 57.6611 29.139 61.4523 29.1338 65.3332C29.1338 65.9078 29.3621 66.4589 29.7684 66.8652C30.1747 67.2716 30.7258 67.4998 31.3005 67.4998ZM48.6338 32.8332C49.9194 32.8332 51.1761 33.2144 52.245 33.9286C53.3139 34.6428 54.147 35.658 54.639 36.8457C55.131 38.0334 55.2597 39.3404 55.0089 40.6012C54.7581 41.8621 54.139 43.0203 53.23 43.9294C52.3209 44.8384 51.1628 45.4575 49.9019 45.7083C48.641 45.9591 47.3341 45.8303 46.1463 45.3384C44.9586 44.8464 43.9435 44.0133 43.2292 42.9444C42.515 41.8754 42.1338 40.6187 42.1338 39.3332C42.1338 37.6093 42.8186 35.956 44.0376 34.737C45.2566 33.518 46.9099 32.8332 48.6338 32.8332ZM76.8005 56.6665C76.8005 57.2411 76.5722 57.7922 76.1659 58.1986C75.7595 58.6049 75.2084 58.8332 74.6338 58.8332H68.1338V65.3332C68.1338 65.9078 67.9055 66.4589 67.4992 66.8652C67.0929 67.2716 66.5418 67.4998 65.9671 67.4998C65.3925 67.4998 64.8414 67.2716 64.4351 66.8652C64.0287 66.4589 63.8005 65.9078 63.8005 65.3332V58.8332H57.3005C56.7258 58.8332 56.1747 58.6049 55.7684 58.1986C55.3621 57.7922 55.1338 57.2411 55.1338 56.6665C55.1338 56.0919 55.3621 55.5408 55.7684 55.1344C56.1747 54.7281 56.7258 54.4998 57.3005 54.4998H63.8005V47.9998C63.8005 47.4252 64.0287 46.8741 64.4351 46.4678C64.8414 46.0614 65.3925 45.8332 65.9671 45.8332C66.5418 45.8332 67.0929 46.0614 67.4992 46.4678C67.9055 46.8741 68.1338 47.4252 68.1338 47.9998V54.4998H74.6338C75.2084 54.4998 75.7595 54.7281 76.1659 55.1344C76.5722 55.5408 76.8005 56.0919 76.8005 56.6665Z" fill="#A09999"/>
    </g>
    <defs>
    <filter id="filter0_dd_14765_4999" x="0.966797" y="0" width="104" height="104" filterUnits="userSpaceOnUse" color-interpolation-filters="sRGB">
    <feFlood flood-opacity="0" result="BackgroundImageFix"/>
    <feColorMatrix in="SourceAlpha" type="matrix" values="0 0 0 0 0 0 0 0 0 0 0 0 0 0 0 0 0 0 127 0" result="hardAlpha"/>
    <feOffset dy="4"/>
    <feGaussianBlur stdDeviation="6"/>
    <feComposite in2="hardAlpha" operator="out"/>
    <feColorMatrix type="matrix" values="0 0 0 0 0 0 0 0 0 0 0 0 0 0 0 0 0 0 0.15 0"/>
    <feBlend mode="normal" in2="BackgroundImageFix" result="effect1_dropShadow_14765_4999"/>
    <feColorMatrix in="SourceAlpha" type="matrix" values="0 0 0 0 0 0 0 0 0 0 0 0 0 0 0 0 0 0 127 0" result="hardAlpha"/>
    <feOffset dy="4"/>
    <feGaussianBlur stdDeviation="2"/>
    <feComposite in2="hardAlpha" operator="out"/>
    <feColorMatrix type="matrix" values="0 0 0 0 0 0 0 0 0 0 0 0 0 0 0 0 0 0 0.25 0"/>
    <feBlend mode="normal" in2="effect1_dropShadow_14765_4999" result="effect2_dropShadow_14765_4999"/>
    <feBlend mode="normal" in="SourceGraphic" in2="effect2_dropShadow_14765_4999" result="shape"/>
    </filter>
    </defs>
</svg>
