<svg width="105" height="104" viewBox="0 0 105 104" fill="none" xmlns="http://www.w3.org/2000/svg">
<g filter="url(#filter0_dd_14765_4995)">
<rect x="12.9668" y="8" width="80" height="80" rx="40" fill="white"/>
<rect x="14.4668" y="9.5" width="77" height="77" rx="38.5" stroke="black" stroke-opacity="0.2" stroke-width="3"/>
<path d="M41.5918 67.5H64.3418C65.4251 67.5 65.9668 68.0417 65.9668 69.125C65.9668 70.2083 65.4251 70.75 64.3418 70.75H41.5918C40.5085 70.75 39.9668 70.2083 39.9668 69.125C39.9668 68.0417 40.5085 67.5 41.5918 67.5ZM67.5918 43.125C67.49 38.9942 66.0594 35.5498 63.3002 32.7916C60.5409 30.0335 57.0965 28.6029 52.9668 28.5C48.836 28.6018 45.3916 30.0324 42.6334 32.7916C39.8753 35.5509 38.4447 38.9953 38.3418 43.125C38.3418 46.1377 39.5519 49.5822 41.972 53.4584C44.3922 57.3345 48.0571 61.6256 52.9668 66.3316C57.8754 61.6256 61.5403 57.3345 63.9615 53.4584C66.3828 49.5822 67.5929 46.1377 67.5918 43.125V43.125ZM52.9668 70.75C41.0501 59.9167 35.0918 50.7083 35.0918 43.125C35.2272 38.0463 36.9708 33.8316 40.3227 30.4809C43.6745 27.1301 47.8892 25.3865 52.9668 25.25C58.0455 25.3854 62.2602 27.129 65.6109 30.4809C68.9617 33.8327 70.7053 38.0474 70.8418 43.125C70.8418 50.7083 64.8835 59.9167 52.9668 70.75ZM52.9668 48C54.3545 47.9664 55.5056 47.4925 56.4199 46.5781C57.3343 45.6638 57.7914 44.5127 57.7914 43.125C57.7914 41.7373 57.3343 40.5862 56.4199 39.6719C55.5056 38.7575 54.3545 38.3004 52.9668 38.3004C51.579 38.3004 50.428 38.7575 49.5137 39.6719C48.5993 40.5862 48.1422 41.7373 48.1422 43.125C48.1422 44.5127 48.5993 45.6638 49.5137 46.5781C50.428 47.4925 51.579 47.9664 52.9668 48ZM52.9668 51.25C50.6647 51.1818 48.7521 50.386 47.2289 48.8629C45.7058 47.3397 44.91 45.4271 44.8418 43.125C44.91 40.8229 45.7058 38.9103 47.2289 37.3871C48.7521 35.864 50.6647 35.0682 52.9668 35C55.2689 35.0682 57.1815 35.864 58.7047 37.3871C60.2278 38.9103 61.0235 40.8229 61.0918 43.125C61.0235 45.4271 60.2278 47.3397 58.7047 48.8629C57.1815 50.386 55.2689 51.1818 52.9668 51.25V51.25Z" fill="#A09999" fillOpacity="0.96"/>
</g>
<defs>
<filter id="filter0_dd_14765_4995" x="0.966797" y="0" width="104" height="104" filterUnits="userSpaceOnUse" color-interpolation-filters="sRGB">
<feFlood flood-opacity="0" result="BackgroundImageFix"/>
<feColorMatrix in="SourceAlpha" type="matrix" values="0 0 0 0 0 0 0 0 0 0 0 0 0 0 0 0 0 0 127 0" result="hardAlpha"/>
<feOffset dy="4"/>
<feGaussianBlur stdDeviation="6"/>
<feComposite in2="hardAlpha" operator="out"/>
<feColorMatrix type="matrix" values="0 0 0 0 0 0 0 0 0 0 0 0 0 0 0 0 0 0 0.15 0"/>
<feBlend mode="normal" in2="BackgroundImageFix" result="effect1_dropShadow_14765_4995"/>
<feColorMatrix in="SourceAlpha" type="matrix" values="0 0 0 0 0 0 0 0 0 0 0 0 0 0 0 0 0 0 127 0" result="hardAlpha"/>
<feOffset dy="4"/>
<feGaussianBlur stdDeviation="2"/>
<feComposite in2="hardAlpha" operator="out"/>
<feColorMatrix type="matrix" values="0 0 0 0 0 0 0 0 0 0 0 0 0 0 0 0 0 0 0.25 0"/>
<feBlend mode="normal" in2="effect1_dropShadow_14765_4995" result="effect2_dropShadow_14765_4995"/>
<feBlend mode="normal" in="SourceGraphic" in2="effect2_dropShadow_14765_4995" result="shape"/>
</filter>
</defs>
</svg>
