<svg width="48" height="48" viewBox="0 0 48 48" fill="none" xmlns="http://www.w3.org/2000/svg">
<path d="M3.55579 19.1444L3.55587 19.1441C3.63414 18.8638 3.79183 18.6124 4.00966 18.4202C4.22748 18.2281 4.4961 18.1035 4.78295 18.0613L16.4166 16.3598L16.6749 16.322L16.7915 16.0886L22.6588 4.34932C22.7988 4.11959 22.9948 3.92932 23.2283 3.7964C23.4668 3.66067 23.7362 3.58936 24.0103 3.58936C24.2844 3.58936 24.5538 3.66067 24.7923 3.7964C25.0257 3.92928 25.2216 4.11947 25.3616 4.3491L31.2088 16.0821L31.3253 16.316L31.5839 16.3538L43.2179 18.0554L43.218 18.0554C43.5052 18.0973 43.7741 18.222 43.9922 18.4142C44.2103 18.6065 44.3681 18.8582 44.4463 19.1389C44.5246 19.4195 44.5199 19.717 44.4327 19.995C44.3456 20.273 44.1798 20.5195 43.9558 20.7047L34.3458 28.6474L34.1097 28.8425L34.1762 29.1415L37.2062 42.7502L37.2063 42.7505C37.2728 43.0483 37.2474 43.3594 37.1334 43.6424C37.0195 43.9254 36.8224 44.1668 36.5686 44.3347C36.3148 44.5026 36.0162 44.5892 35.7124 44.583C35.4085 44.5769 35.1136 44.4784 34.8668 44.3003L34.8665 44.3002L24.2925 36.6841L24.0002 36.4735L23.7079 36.6842L13.1339 44.3063L13.1338 44.3063C12.887 44.4844 12.592 44.5829 12.2882 44.5891C11.9844 44.5952 11.6857 44.5086 11.432 44.3407C11.1782 44.1728 10.9811 43.9314 10.8672 43.6484C10.7532 43.3654 10.7278 43.0543 10.7943 42.7565L10.7943 42.7562L13.8243 29.1475L13.8909 28.8486L13.6548 28.6534L4.04512 20.7109C4.04506 20.7109 4.04501 20.7109 4.04496 20.7108C3.82106 20.5254 3.65553 20.2788 3.56864 20.0007C3.48172 19.7226 3.47726 19.4251 3.55579 19.1444Z" fill="#E1BF0B" stroke="#928787"/>
</svg>
