<svg width="60" height="60" viewBox="0 0 60 60" fill="none" xmlns="http://www.w3.org/2000/svg">
<path d="M19.4933 33.2846L41.0093 43.3918C40.9924 43.3861 40.9757 43.3807 40.9592 43.3756L19.4996 33.2904L19.4932 33.2846L19.4933 33.2846ZM40.3216 43.261C40.3233 43.2611 40.3297 43.2614 40.3376 43.262L40.3272 43.2613L40.3232 43.2611L40.322 43.261L40.3216 43.261ZM42.6491 46.3666L43.0574 44.7197L44.4319 43.6025C45.303 42.8945 46.3899 42.5055 47.5124 42.5L47.5214 42.4999L47.5303 42.4998C48.5929 42.487 49.6328 42.8068 50.5044 43.4145C51.3761 44.0222 52.0358 44.8873 52.3912 45.8887C52.7466 46.8901 52.7799 47.9776 52.4863 48.9989C52.1927 50.0201 51.5871 50.9239 50.7542 51.5837C49.9212 52.2435 48.9028 52.6263 47.8415 52.6783C46.7802 52.7304 45.7291 52.4492 44.8356 51.874C43.9422 51.2989 43.251 50.4587 42.8589 49.4711C42.4668 48.4835 42.3934 47.3979 42.6491 46.3666ZM42.6465 13.6106C42.5538 13.2433 42.5047 12.8665 42.5001 12.4878C42.5025 11.5032 42.7956 10.541 43.3427 9.72215C43.8921 8.89991 44.673 8.25904 45.5867 7.88061C46.5003 7.50217 47.5056 7.40315 48.4755 7.59608C49.4454 7.789 50.3363 8.26521 51.0356 8.96447C51.7349 9.66373 52.2111 10.5546 52.404 11.5245L54.856 11.0368L52.404 11.5246C52.5969 12.4945 52.4979 13.4998 52.1195 14.4134C51.741 15.327 51.1002 16.1079 50.2779 16.6574C49.4569 17.2059 48.4919 17.4991 47.5045 17.5C46.3813 17.495 45.2936 17.106 44.4219 16.3975L43.0285 15.265L43.0586 15.2429L42.6465 13.6106ZM19.5088 26.7041L40.9482 16.6197C40.9793 16.6099 41.0106 16.5994 41.0421 16.5882L19.5173 26.703L19.5088 26.7041ZM16.0868 26.5317L17.1476 27.6332L17.4474 29.5573C17.4702 29.7039 17.4865 29.8513 17.4964 29.9992C17.4866 30.144 17.4705 30.2883 17.4479 30.4317L17.1429 32.3717L16.0868 33.4683C15.3953 34.1864 14.5049 34.6814 13.53 34.8897C12.555 35.0979 11.5401 35.01 10.6155 34.6372C9.69092 34.2644 8.89889 33.6237 8.34113 32.7974C7.78337 31.9711 7.48535 30.9969 7.48535 30C7.48535 29.0031 7.78337 28.0289 8.34113 27.2026C8.89888 26.3763 9.69092 25.7356 10.6155 25.3628C11.5401 24.99 12.555 24.9021 13.53 25.1103C14.5049 25.3186 15.3953 25.8136 16.0868 26.5317Z" stroke="black" strokeWidth="5"/>
</svg>
