<svg width="40" height="40" viewBox="0 0 40 40" fill="none" xmlns="http://www.w3.org/2000/svg">
<path d="M31.128 32.6783L21.603 23.1516C17.3658 26.164 11.527 25.4272 8.1711 21.4565C4.81516 17.4858 5.06157 11.6059 8.73797 7.92995C12.4134 4.25236 18.2939 4.00488 22.2653 7.36064C26.2367 10.7164 26.974 16.5557 23.9613 20.7933L33.4863 30.32L31.1296 32.6766L31.128 32.6783ZM15.808 8.33326C12.6475 8.33255 9.92079 10.5511 9.27877 13.6457C8.63674 16.7403 10.2558 19.8604 13.1558 21.117C16.0557 22.3736 19.4395 21.4213 21.2584 18.8367C23.0773 16.2521 22.8314 12.7455 20.6696 10.44L21.678 11.44L20.5413 10.3066L20.5213 10.2866C19.2743 9.03191 17.577 8.3285 15.808 8.33326Z" fill="#2E3A59"/>
</svg>
