<svg width="32" height="32" viewBox="0 0 32 32" fill="none" xmlns="http://www.w3.org/2000/svg">
  <path d="M24.903 26.1435L17.283 18.5222C13.8932 20.9321 9.22222 20.3426 6.53746 17.1661C3.85271 13.9895 4.04984 9.28562 6.99097 6.34484C9.93131 3.40277 14.6357 3.20478 17.8128 5.88939C20.99 8.57401 21.5798 13.2454 19.1696 16.6355L26.7896 24.2568L24.9043 26.1422L24.903 26.1435ZM12.647 6.66749C10.1186 6.66692 7.93722 8.44174 7.4236 10.9174C6.90998 13.3931 8.20525 15.8892 10.5252 16.8945C12.8452 17.8998 15.5522 17.1379 17.0073 15.0702C18.4624 13.0025 18.2657 10.1973 16.5363 8.35284L17.343 9.15284L16.4336 8.24617L16.4176 8.23017C15.42 7.22641 14.0622 6.66368 12.647 6.66749Z" fill="black"/>
  </svg>
  