<svg width="56" height="56" viewBox="0 0 56 56" fill="none" xmlns="http://www.w3.org/2000/svg">
<rect width="56" height="56" rx="28" fill="#EEC3FD"/>
<path d="M14.667 17.3333C14.667 16.9797 14.8075 16.6406 15.0575 16.3905C15.3076 16.1405 15.6467 16 16.0003 16H40.0003C40.3539 16 40.6931 16.1405 40.9431 16.3905C41.1932 16.6406 41.3337 16.9797 41.3337 17.3333C41.3337 17.687 41.1932 18.0261 40.9431 18.2761C40.6931 18.5262 40.3539 18.6667 40.0003 18.6667H16.0003C15.6467 18.6667 15.3076 18.5262 15.0575 18.2761C14.8075 18.0261 14.667 17.687 14.667 17.3333ZM16.0003 29.3333H40.0003C40.3539 29.3333 40.6931 29.1929 40.9431 28.9428C41.1932 28.6928 41.3337 28.3536 41.3337 28C41.3337 27.6464 41.1932 27.3072 40.9431 27.0572C40.6931 26.8071 40.3539 26.6667 40.0003 26.6667H16.0003C15.6467 26.6667 15.3076 26.8071 15.0575 27.0572C14.8075 27.3072 14.667 27.6464 14.667 28C14.667 28.3536 14.8075 28.6928 15.0575 28.9428C15.3076 29.1929 15.6467 29.3333 16.0003 29.3333ZM16.0003 40H40.0003C40.3539 40 40.6931 39.8595 40.9431 39.6095C41.1932 39.3594 41.3337 39.0203 41.3337 38.6667C41.3337 38.313 41.1932 37.9739 40.9431 37.7239C40.6931 37.4738 40.3539 37.3333 40.0003 37.3333H16.0003C15.6467 37.3333 15.3076 37.4738 15.0575 37.7239C14.8075 37.9739 14.667 38.313 14.667 38.6667C14.667 39.0203 14.8075 39.3594 15.0575 39.6095C15.3076 39.8595 15.6467 40 16.0003 40Z" fill="black"/>
</svg>
