<svg width="32" height="32" viewBox="0 0 32 32" fill="none" xmlns="http://www.w3.org/2000/svg">
<path d="M8.563 23H25.001C25.5637 22.9793 26.0323 22.7813 26.407 22.406C26.7817 22.0307 26.9797 21.562 27.001 21V8C26.9803 7.43733 26.7823 6.96867 26.407 6.594C26.0317 6.21933 25.563 6.02133 25.001 6H7.001C6.43833 6.02067 5.96967 6.21867 5.595 6.594C5.22033 6.96933 5.02233 7.438 5.001 8V25.844L8.563 23ZM9.25 25L4.625 28.688C4.29167 28.938 3.94267 28.9743 3.578 28.797C3.21333 28.6197 3.02067 28.3227 3 27.906V8C3.02067 6.87467 3.41133 5.932 4.172 5.172C4.93267 4.412 5.87533 4.02133 7 4H25C26.1253 4.02067 27.068 4.41133 27.828 5.172C28.588 5.93267 28.9787 6.87533 29 8V21C28.9793 22.1253 28.5887 23.068 27.828 23.828C27.0673 24.588 26.1247 24.9787 25 25H9.25ZM16 15.594C15.5413 15.594 15.161 15.443 14.859 15.141C14.557 14.839 14.406 14.4587 14.406 14C14.406 13.5413 14.557 13.161 14.859 12.859C15.161 12.557 15.5413 12.406 16 12.406C16.4587 12.406 16.839 12.557 17.141 12.859C17.443 13.161 17.594 13.5413 17.594 14C17.594 14.4587 17.443 14.839 17.141 15.141C16.839 15.443 16.4587 15.594 16 15.594ZM22 15.594C21.5413 15.594 21.161 15.443 20.859 15.141C20.557 14.839 20.406 14.4587 20.406 14C20.406 13.5413 20.557 13.161 20.859 12.859C21.161 12.557 21.5413 12.406 22 12.406C22.4587 12.406 22.839 12.557 23.141 12.859C23.443 13.161 23.594 13.5413 23.594 14C23.594 14.4587 23.443 14.839 23.141 15.141C22.839 15.443 22.4587 15.594 22 15.594ZM10 15.594C9.54133 15.594 9.161 15.443 8.859 15.141C8.557 14.839 8.406 14.4587 8.406 14C8.406 13.5413 8.557 13.161 8.859 12.859C9.161 12.557 9.54133 12.406 10 12.406C10.4587 12.406 10.839 12.557 11.141 12.859C11.443 13.161 11.594 13.5413 11.594 14C11.594 14.4587 11.443 14.839 11.141 15.141C10.839 15.443 10.4587 15.594 10 15.594Z" fill="#08080A" fillOpacity="0.96"/>
</svg>
