<svg width="32" height="32" viewBox="0 0 32 32" fill="none" xmlns="http://www.w3.org/2000/svg">
<path d="M8 4V25.844L14.125 20.938C14.6877 20.5007 15.3127 20.282 16 20.282C16.6873 20.282 17.3123 20.5007 17.875 20.938L24 25.844V4H8ZM7 2H25C25.292 2 25.5317 2.09367 25.719 2.281C25.9063 2.46833 26 2.708 26 3V27.906C25.9793 28.3227 25.7867 28.6197 25.422 28.797C25.0573 28.9743 24.7083 28.938 24.375 28.688L16.625 22.5C16.4377 22.354 16.2293 22.281 16 22.281C15.7707 22.281 15.5623 22.354 15.375 22.5L7.625 28.688C7.29167 28.938 6.94267 28.9743 6.578 28.797C6.21333 28.6197 6.02067 28.3227 6 27.906V3C6 2.708 6.09367 2.46833 6.281 2.281C6.46833 2.09367 6.708 2 7 2Z" fill="currentColor"/>
</svg>
