<svg width="32" height="32" viewBox="0 0 32 32" fill="none" xmlns="http://www.w3.org/2000/svg">
<path d="M13.3335 28H18.6668C18.6668 28.7072 18.3859 29.3855 17.8858 29.8856C17.3857 30.3857 16.7074 30.6666 16.0002 30.6666C15.2929 30.6666 14.6146 30.3857 14.1145 29.8856C13.6144 29.3855 13.3335 28.7072 13.3335 28ZM4.10149 24.5106C4.00055 24.2669 3.97416 23.9988 4.02566 23.7401C4.07717 23.4814 4.20424 23.2438 4.39082 23.0573L6.66682 20.7813V13.3333C6.67111 11.0913 7.48161 8.92564 8.95034 7.2317C10.4191 5.53777 12.4481 4.42857 14.6668 4.10665V2.66665C14.6668 2.31302 14.8073 1.97389 15.0573 1.72384C15.3074 1.47379 15.6465 1.33331 16.0002 1.33331C16.3538 1.33331 16.6929 1.47379 16.943 1.72384C17.193 1.97389 17.3335 2.31302 17.3335 2.66665V4.10665C19.5523 4.42857 21.5812 5.53777 23.05 7.2317C24.5187 8.92564 25.3292 11.0913 25.3335 13.3333V20.7813L27.6095 23.0573C27.7959 23.2438 27.9228 23.4813 27.9743 23.7399C28.0257 23.9985 27.9993 24.2666 27.8984 24.5102C27.7975 24.7538 27.6266 24.962 27.4074 25.1085C27.1882 25.255 26.9305 25.3333 26.6668 25.3333H5.33349C5.0698 25.3334 4.81201 25.2553 4.59272 25.1088C4.37343 24.9624 4.20248 24.7542 4.10149 24.5106ZM8.55215 22.6666H23.4482L23.0575 22.276C22.8074 22.026 22.6669 21.6869 22.6668 21.3333V13.3333C22.6668 11.5652 21.9644 9.86951 20.7142 8.61927C19.464 7.36902 17.7683 6.66665 16.0002 6.66665C14.232 6.66665 12.5364 7.36902 11.2861 8.61927C10.0359 9.86951 9.33349 11.5652 9.33349 13.3333V21.3333C9.33341 21.6869 9.19289 22.026 8.94282 22.276L8.55215 22.6666Z" fill="black"/>
</svg>
