<svg width="60" height="60" viewBox="0 0 60 60" fill="none" xmlns="http://www.w3.org/2000/svg">
    <rect width="60" height="60" rx="30" fill="#EEC3FD"/>
    <path d="M29.9875 33.5386L30.0013 33.539L30.0151 33.5386C33.582 33.4401 36.5706 32.2075 38.9462 29.8318C41.3219 27.4562 42.5545 24.4676 42.653 20.9007L42.6534 20.8869L42.653 20.8731C42.5545 17.3061 41.3219 14.3176 38.9462 11.9419C36.5706 9.56628 33.582 8.33362 30.0151 8.23518L30.0013 8.23479L29.9875 8.23518C26.4205 8.33362 23.432 9.56628 21.0563 11.9419C18.6807 14.3176 17.448 17.3061 17.3496 20.8731L17.3492 20.8869L17.3496 20.9007C17.448 24.4676 18.6807 27.4562 21.0563 29.8318C23.432 32.2075 26.4205 33.4401 29.9875 33.5386ZM11.2737 43.6569L11.2734 43.6643V43.6717V48.2287C11.2734 48.7899 11.4584 49.286 11.8467 49.6744C12.2351 50.0627 12.7312 50.2476 13.2924 50.2476C13.8537 50.2476 14.3498 50.0627 14.7381 49.6744C15.1265 49.286 15.3114 48.7899 15.3114 48.2287V43.6779C15.3411 42.5014 15.7385 41.5529 16.4941 40.7974C17.2496 40.0419 18.1981 39.6445 19.3745 39.6147H40.628C41.8045 39.6445 42.753 40.0419 43.5085 40.7974C44.264 41.5529 44.6614 42.5014 44.6912 43.6779V48.2287C44.6912 48.7899 44.8761 49.286 45.2644 49.6744C45.6528 50.0627 46.1489 50.2476 46.7101 50.2476C47.2714 50.2476 47.7675 50.0627 48.1558 49.6744C48.5442 49.286 48.7291 48.7899 48.7291 48.2287V43.6717V43.6643L48.7289 43.6569C48.6616 41.3872 47.8718 39.4751 46.3513 37.9546C44.8307 36.434 42.9187 35.6443 40.649 35.577L40.6416 35.5768H40.6342H19.3684H19.361L19.3536 35.577C17.0839 35.6443 15.1718 36.434 13.6513 37.9546C12.1307 39.4751 11.3409 41.3872 11.2737 43.6569ZM36.1034 26.989C34.4957 28.5968 32.4733 29.4373 30.0013 29.5006C27.5292 29.4373 25.5069 28.5968 23.8991 26.989C22.2914 25.3813 21.4509 23.3589 21.3875 20.8869C21.4509 18.4148 22.2914 16.3925 23.8991 14.7847C25.5069 13.177 27.5292 12.3365 30.0013 12.2731C32.4733 12.3365 34.4957 13.177 36.1034 14.7847C37.7112 16.3925 38.5517 18.4148 38.615 20.8869C38.5517 23.3589 37.7112 25.3813 36.1034 26.989Z" fill="#08080A" fillOpacity="0.96" stroke="black"/>
</svg>