<svg width="48" height="48" viewBox="0 0 48 48" fill="none" xmlns="http://www.w3.org/2000/svg">
  <rect width="48" height="48" rx="24" fill="#1B542A"/>
  <path d="M23.9879 26.9309L24.0017 26.9313L24.0155 26.9309C26.8926 26.8515 29.3084 25.8562 31.2284 23.9362C33.1483 22.0163 34.1436 19.6005 34.223 16.7233L34.2234 16.7096L34.223 16.6958C34.1436 13.8186 33.1483 11.4029 31.2284 9.48289C29.3084 7.56292 26.8926 6.56763 24.0155 6.48823L24.0017 6.48785L23.9879 6.48823C21.1108 6.56763 18.695 7.56292 16.775 9.48289C14.8551 11.4029 13.8598 13.8186 13.7804 16.6958L13.78 16.7096L13.7804 16.7233C13.8598 19.6005 14.8551 22.0163 16.775 23.9362C18.695 25.8562 21.1108 26.8515 23.9879 26.9309ZM8.91965 34.9226L8.91943 34.93V34.9374V38.583C8.91943 39.0555 9.07591 39.4788 9.40735 39.8102C9.73878 40.1417 10.1621 40.2982 10.6346 40.2982C11.1072 40.2982 11.5305 40.1417 11.8619 39.8102C12.1933 39.4788 12.3498 39.0555 12.3498 38.583V34.9436C12.3732 34.0266 12.682 33.2933 13.2667 32.7087C13.8513 32.1241 14.5846 31.8153 15.5016 31.7918H32.5018C33.4188 31.8153 34.1522 32.1241 34.7368 32.7087C35.3214 33.2933 35.6302 34.0266 35.6536 34.9436V38.583C35.6536 39.0555 35.8101 39.4788 36.1415 39.8102C36.473 40.1417 36.8962 40.2982 37.3688 40.2982C37.8414 40.2982 38.2646 40.1417 38.5961 39.8102C38.9275 39.4788 39.084 39.0555 39.084 38.583V34.9374V34.93L39.0838 34.9226C39.0292 33.0833 38.3882 31.5288 37.1524 30.293C35.9166 29.0572 34.3621 28.4162 32.5229 28.3617L32.5154 28.3615H32.508H15.4954H15.488L15.4806 28.3617C13.6413 28.4162 12.0868 29.0572 10.851 30.293C9.6152 31.5288 8.97418 33.0833 8.91965 34.9226ZM28.8127 21.5206C27.5466 22.7867 25.9546 23.4499 24.0017 23.5005C22.0488 23.4499 20.4568 22.7867 19.1907 21.5206C17.9246 20.2545 17.2613 18.6625 17.2107 16.7096C17.2613 14.7566 17.9246 13.1647 19.1907 11.8986C20.4568 10.6325 22.0488 9.96919 24.0017 9.91858C25.9546 9.96919 27.5466 10.6325 28.8127 11.8986C30.0788 13.1647 30.7421 14.7566 30.7927 16.7096C30.7421 18.6625 30.0788 20.2545 28.8127 21.5206Z" fill="black" stroke="black"/>
  </svg>
  