<svg width="18" height="18" viewBox="0 0 18 18" fill="none" xmlns="http://www.w3.org/2000/svg">
<g clip-path="url(#clip0_15155_8663)">
<path d="M1.49984 8.16675H8.1665V1.50008C8.1665 1.27907 8.2543 1.06711 8.41058 0.910826C8.56686 0.754545 8.77882 0.666748 8.99984 0.666748C9.22085 0.666748 9.43281 0.754545 9.58909 0.910826C9.74537 1.06711 9.83317 1.27907 9.83317 1.50008V8.16675H16.4998C16.7209 8.16675 16.9328 8.25455 17.0891 8.41083C17.2454 8.56711 17.3332 8.77907 17.3332 9.00008C17.3332 9.2211 17.2454 9.43306 17.0891 9.58934C16.9328 9.74562 16.7209 9.83342 16.4998 9.83342H9.83317V16.5001C9.83317 16.7211 9.74537 16.9331 9.58909 17.0893C9.43281 17.2456 9.22085 17.3334 8.99984 17.3334C8.77882 17.3334 8.56686 17.2456 8.41058 17.0893C8.2543 16.9331 8.1665 16.7211 8.1665 16.5001V9.83342H1.49984C1.27882 9.83342 1.06686 9.74562 0.910582 9.58934C0.754301 9.43306 0.666504 9.2211 0.666504 9.00008C0.666504 8.77907 0.754301 8.56711 0.910582 8.41083C1.06686 8.25455 1.27882 8.16675 1.49984 8.16675V8.16675Z" fill="black"/>
</g>
<defs>
<clipPath id="clip0_15155_8663">
<rect width="18" height="18" rx="9" fill="white"/>
</clipPath>
</defs>
</svg>
