<svg width="18" height="18" viewBox="0 0 18 18" fill="none" xmlns="http://www.w3.org/2000/svg">
<path fill-rule="evenodd" clip-rule="evenodd" d="M3.75 11.25C4.99264 11.25 6 10.2426 6 9C6 7.75736 4.99264 6.75 3.75 6.75C2.50736 6.75 1.5 7.75736 1.5 9C1.5 10.2426 2.50736 11.25 3.75 11.25ZM3.75 9.75C4.16421 9.75 4.5 9.41421 4.5 9C4.5 8.58579 4.16421 8.25 3.75 8.25C3.33579 8.25 3 8.58579 3 9C3 9.41421 3.33579 9.75 3.75 9.75Z" fill="black"/>
<path fill-rule="evenodd" clip-rule="evenodd" d="M9 11.25C10.2426 11.25 11.25 10.2426 11.25 9C11.25 7.75736 10.2426 6.75 9 6.75C7.75736 6.75 6.75 7.75736 6.75 9C6.75 10.2426 7.75736 11.25 9 11.25ZM9 9.75C9.41421 9.75 9.75 9.41421 9.75 9C9.75 8.58579 9.41421 8.25 9 8.25C8.58579 8.25 8.25 8.58579 8.25 9C8.25 9.41421 8.58579 9.75 9 9.75Z" fill="black"/>
<path fill-rule="evenodd" clip-rule="evenodd" d="M16.5 9C16.5 10.2426 15.4926 11.25 14.25 11.25C13.0074 11.25 12 10.2426 12 9C12 7.75736 13.0074 6.75 14.25 6.75C15.4926 6.75 16.5 7.75736 16.5 9ZM15 9C15 9.41421 14.6642 9.75 14.25 9.75C13.8358 9.75 13.5 9.41421 13.5 9C13.5 8.58579 13.8358 8.25 14.25 8.25C14.6642 8.25 15 8.58579 15 9Z" fill="black"/>
</svg>
