<svg width="18" height="18" viewBox="0 0 18 18" fill="none" xmlns="http://www.w3.org/2000/svg">
<path fill-rule="evenodd" clip-rule="evenodd" d="M14.7273 1.63636H3.27273C2.36899 1.63636 1.63636 2.36899 1.63636 3.27273V14.7273C1.63636 15.631 2.36899 16.3636 3.27273 16.3636H14.7273C15.631 16.3636 16.3636 15.631 16.3636 14.7273V3.27273C16.3636 2.36899 15.631 1.63636 14.7273 1.63636ZM3.27273 0C1.46525 0 0 1.46525 0 3.27273V14.7273C0 16.5347 1.46525 18 3.27273 18H14.7273C16.5347 18 18 16.5347 18 14.7273V3.27273C18 1.46525 16.5347 0 14.7273 0H3.27273Z" fill="black"/>
<path d="M12.2727 9L7.36364 12.5428V5.45717L12.2727 9Z" fill="black"/>
</svg>
