<svg width="18" height="18" viewBox="0 0 18 18" fill="none" xmlns="http://www.w3.org/2000/svg">
<path d="M11.4545 6.54545H6.54545V11.4545H11.4545V6.54545Z" fill="black"/>
<path fill-rule="evenodd" clip-rule="evenodd" d="M0 3.27273C0 1.46525 1.46525 0 3.27273 0H14.7273C16.5347 0 18 1.46525 18 3.27273V14.7273C18 16.5347 16.5347 18 14.7273 18H3.27273C1.46525 18 0 16.5347 0 14.7273V3.27273ZM3.27273 1.63636H14.7273C15.631 1.63636 16.3636 2.36899 16.3636 3.27273V14.7273C16.3636 15.631 15.631 16.3636 14.7273 16.3636H3.27273C2.36899 16.3636 1.63636 15.631 1.63636 14.7273V3.27273C1.63636 2.36899 2.36899 1.63636 3.27273 1.63636Z" fill="black"/>
</svg>
