<svg width="64" height="64" viewBox="0 0 64 64" fill="none" xmlns="http://www.w3.org/2000/svg">
<path d="M38.0625 9.31209L17.3745 30.6241C16.9998 30.9988 16.8125 31.4468 16.8125 31.9681C16.8125 32.4894 16.9998 32.9581 17.3745 33.3741L38.0625 54.6861C38.4372 55.0194 38.8745 55.1861 39.3745 55.1861C39.8745 55.1861 40.3118 54.9988 40.6865 54.6241C41.0612 54.2494 41.2485 53.8121 41.2485 53.3121C41.2485 52.8121 41.0612 52.3748 40.6865 52.0001L21.1865 32.0001L40.6865 12.0001C41.0612 11.6254 41.2485 11.1881 41.2485 10.6881C41.2485 10.1881 41.0612 9.75075 40.6865 9.37609C40.3118 9.00142 39.8745 8.81409 39.3745 8.81409C38.8745 8.81409 38.4372 8.98075 38.0625 9.31409V9.31209Z" fill="white" fillOpacity="0.96"/>
</svg>
