<?xml version="1.0" standalone="no"?>
<!DOCTYPE svg PUBLIC "-//W3C//DTD SVG 20010904//EN"
 "http://www.w3.org/TR/2001/REC-SVG-20010904/DTD/svg10.dtd">
<svg version="1.0" xmlns="http://www.w3.org/2000/svg"
 width="640.000000pt" height="640.000000pt" viewBox="0 0 640.000000 640.000000"
 preserveAspectRatio="xMidYMid meet">
<metadata>
Created by potrace 1.14, written by Peter Selinger 2001-2017
</metadata>
<g transform="translate(0.000000,640.000000) scale(0.100000,-0.100000)"
fill="#000000" stroke="none">
<path d="M4850 6031 c0 -6 10 -17 22 -25 12 -9 19 -16 14 -16 -5 0 -1 -9 10
-21 12 -13 27 -19 41 -16 19 3 21 2 12 -10 -16 -19 -2 -30 20 -16 16 10 18 9
14 -7 -7 -26 30 -45 58 -30 11 7 23 9 26 6 3 -3 -2 -8 -11 -12 -20 -8 -21 -24
-2 -24 8 0 16 -6 19 -14 3 -8 16 -16 29 -18 l23 -5 -25 -10 c-20 -9 -27 -8
-37 5 -12 14 -13 13 -13 -6 0 -23 -14 -29 -26 -11 -5 8 -8 8 -13 0 -4 -6 -27
-13 -51 -16 -27 -3 -52 -13 -61 -25 -9 -10 -19 -16 -23 -13 -3 3 -12 1 -19 -6
-8 -6 -23 -8 -32 -4 -13 4 -16 3 -11 -5 4 -7 2 -12 -3 -12 -6 0 -11 6 -11 13
0 7 -5 5 -10 -5 -8 -13 -19 -15 -45 -11 -22 4 -35 2 -35 -5 0 -7 7 -9 18 -5
15 6 15 5 3 -10 -7 -9 -23 -17 -35 -17 -13 0 -33 -11 -45 -24 l-22 -23 22 -6
c13 -4 30 -1 38 6 12 9 13 9 7 0 -14 -25 60 -15 78 10 l17 22 -6 -22 c-9 -32
11 -29 29 5 15 26 15 27 16 3 0 -17 4 -22 16 -17 9 3 20 6 25 6 4 0 18 17 29
38 l21 37 -5 -32 c-6 -36 7 -44 23 -15 6 9 11 11 11 5 0 -18 37 -16 44 2 8 22
25 18 19 -5 -6 -22 20 -29 33 -9 4 8 9 7 14 -2 7 -10 12 -10 26 2 11 9 15 9
10 2 -14 -25 5 -33 37 -16 29 14 31 15 19 0 -20 -24 -6 -40 21 -23 12 8 38 17
57 20 32 5 33 5 9 -5 -15 -5 -29 -19 -32 -30 -3 -12 -10 -18 -16 -15 -6 4 -8
-1 -6 -13 3 -15 -1 -18 -18 -14 -18 4 -19 3 -7 -6 13 -9 13 -11 -2 -11 -9 0
-20 -4 -23 -10 -4 -6 1 -7 11 -3 13 5 15 2 10 -15 -4 -11 -2 -23 4 -27 14 -8
13 -45 -1 -45 -8 0 -9 -15 -5 -45 6 -37 4 -45 -8 -45 -12 0 -16 -11 -16 -50 0
-38 -4 -50 -15 -50 -11 0 -15 -12 -15 -49 0 -40 -3 -50 -20 -54 -15 -4 -20
-14 -20 -39 0 -47 -10 -78 -26 -78 -7 0 -20 -25 -30 -60 -10 -36 -24 -65 -35
-71 -11 -5 -19 -15 -19 -22 0 -11 75 -97 85 -97 2 0 13 14 25 30 16 22 19 34
11 43 -7 10 -1 29 25 71 21 36 32 65 29 76 -3 11 5 40 18 67 13 26 22 54 20
61 -3 7 3 24 12 39 10 14 18 37 20 52 1 14 10 43 19 63 9 21 12 39 7 43 -6 3
-2 24 9 47 14 31 16 44 7 50 -6 4 -8 10 -4 14 4 4 14 -1 22 -13 8 -11 23 -23
34 -26 22 -5 46 15 33 28 -4 5 -2 5 5 1 6 -3 16 2 22 11 7 14 5 21 -12 31
l-22 13 23 -6 c12 -4 22 -2 22 4 0 5 -8 12 -17 14 -16 4 -16 5 0 6 25 1 17 23
-14 38 l-24 13 23 0 c13 0 21 4 18 8 -2 4 4 13 15 20 11 7 19 8 19 2 0 -14 27
-12 33 3 4 9 6 9 6 -1 1 -7 6 -10 11 -7 6 3 10 1 10 -4 0 -15 27 -14 33 2 3 6
6 2 6 -9 1 -30 29 -38 54 -17 20 18 20 18 4 -6 -22 -33 -6 -56 27 -39 19 10
20 10 7 -6 -8 -9 -10 -20 -6 -24 4 -4 10 -1 12 6 7 19 20 14 19 -9 -1 -15 9
-24 38 -34 22 -8 43 -12 48 -9 13 8 9 52 -4 58 -10 5 -10 7 0 12 17 8 15 24
-3 24 -9 0 -12 6 -8 17 4 11 3 14 -5 9 -8 -4 -10 -2 -6 7 3 9 -8 23 -30 37
-20 12 -36 25 -36 29 0 3 -14 12 -31 18 -17 7 -28 17 -24 23 4 7 -12 9 -50 6
-47 -3 -57 -1 -66 15 -11 21 0 26 18 8 17 -17 47 -3 39 17 -6 15 -4 15 10 3
12 -10 18 -11 21 -3 2 7 13 10 23 7 16 -4 20 0 20 18 1 21 2 22 13 8 7 -9 27
-16 45 -17 29 -1 32 2 27 21 -4 17 -2 16 10 -5 18 -31 55 -38 56 -10 0 13 3
12 11 -5 13 -27 33 -31 24 -6 -6 16 -6 16 12 0 20 -18 52 -23 52 -8 0 5 7 8
16 7 74 -6 -77 76 -165 90 -23 4 -41 11 -41 17 0 6 -3 7 -7 4 -3 -4 -13 -1
-21 6 -13 10 -14 9 -8 -2 6 -9 5 -12 -5 -9 -8 3 -13 10 -12 15 1 5 -8 9 -20 9
-16 -1 -21 4 -20 19 1 11 0 14 -3 7 -3 -6 -10 -9 -16 -6 -6 4 -19 -4 -29 -17
-10 -13 -19 -19 -19 -12 0 21 -31 2 -42 -26 l-11 -26 -6 25 c-5 18 -3 26 7 29
28 6 41 25 25 36 -10 7 -4 10 24 10 26 0 37 4 35 13 -2 9 4 11 18 7 22 -7 28
10 8 19 -7 3 -3 3 10 0 24 -6 56 12 46 27 -3 5 0 9 5 9 6 0 11 5 11 10 0 14
-67 13 -76 -1 -3 -6 -18 -8 -33 -5 -19 5 -22 4 -11 -4 13 -8 13 -10 -1 -10
-21 0 -139 -59 -139 -70 0 -4 -11 -7 -25 -6 -13 2 -24 0 -23 -3 4 -35 -27 -44
-37 -11 -7 21 -25 28 -25 10 0 -5 -4 -10 -10 -10 -5 0 -10 9 -10 20 0 14 -5
18 -17 13 -12 -5 -15 -2 -10 10 5 13 2 15 -16 8 -16 -6 -29 -4 -44 9 -12 10
-19 21 -15 25 4 5 2 5 -4 2 -15 -9 -106 31 -99 43 3 4 -4 6 -15 3 -15 -4 -20
0 -20 16 0 11 -4 21 -10 21 -5 0 -7 -7 -4 -15 4 -8 1 -15 -5 -15 -7 0 -14 6
-17 13 -5 15 -64 22 -64 8z m650 -171 c0 -5 -2 -10 -4 -10 -3 0 -8 5 -11 10
-3 6 -1 10 4 10 6 0 11 -4 11 -10z m-240 -29 c0 -6 -4 -13 -10 -16 -5 -3 -10
1 -10 9 0 9 5 16 10 16 6 0 10 -4 10 -9z m-130 -51 c0 -5 -4 -10 -10 -10 -5 0
-10 5 -10 10 0 6 5 10 10 10 6 0 10 -4 10 -10z"/>
<path d="M5135 5940 c-4 -6 -11 -7 -17 -4 -7 4 -8 2 -4 -5 6 -9 11 -9 22 0 14
11 18 19 10 19 -3 0 -8 -5 -11 -10z"/>
<path d="M870 5717 c-123 -28 -220 -104 -274 -217 -28 -59 -31 -74 -31 -165 0
-113 17 -164 82 -243 103 -125 297 -176 438 -113 l44 19 157 -170 156 -169
-31 -37 c-17 -20 -69 -86 -115 -147 l-84 -110 -142 -85 c-78 -47 -145 -91
-148 -99 -3 -7 0 -23 7 -34 11 -17 10 -23 -12 -41 -24 -21 -87 -100 -87 -109
0 -3 14 -8 30 -12 35 -8 37 -15 11 -39 -16 -14 -17 -22 -8 -45 15 -39 5 -55
-41 -69 -37 -11 -82 -52 -82 -73 0 -5 15 -9 33 -10 l32 -1 -35 -12 c-42 -15
-48 -42 -26 -118 8 -29 13 -54 12 -56 -2 -2 -20 11 -39 27 -43 38 -67 33 -67
-15 0 -19 -4 -34 -10 -34 -5 0 -10 7 -10 15 0 33 -20 12 -35 -37 -23 -79 -21
-103 20 -216 4 -10 15 -6 41 14 l35 27 -23 -47 -23 -48 21 -17 21 -16 -29 -27
c-22 -21 -27 -32 -22 -52 5 -21 2 -26 -18 -30 -12 -3 -34 -7 -48 -10 -19 -4
-38 -27 -74 -86 -27 -44 -53 -83 -58 -86 -4 -3 -8 -10 -8 -15 0 -6 10 -3 22 5
31 22 41 20 28 -5 -6 -11 -18 -38 -26 -61 l-14 -40 38 6 c20 4 51 9 67 12 l30
5 -27 -23 c-14 -13 -32 -43 -39 -67 -13 -43 -12 -44 16 -67 l29 -23 -48 -20
c-26 -12 -52 -21 -57 -21 -5 0 -9 -11 -9 -25 0 -24 42 -75 61 -75 5 0 9 -3 9
-7 0 -5 -23 -6 -52 -4 l-52 3 16 -23 c8 -13 21 -34 29 -47 14 -23 86 -78 93
-71 2 2 17 29 35 59 26 47 31 51 31 29 0 -15 9 -32 20 -40 18 -13 19 -17 8
-46 -10 -28 -10 -37 5 -62 9 -15 14 -31 11 -34 -24 -24 78 -132 167 -178 35
-17 79 -42 100 -56 35 -23 37 -26 28 -59 -11 -39 2 -74 28 -74 9 0 62 -25 118
-55 149 -79 148 -75 25 -243 l-99 -138 -88 -28 c-48 -16 -92 -32 -97 -37 -9
-8 0 -10 124 -29 109 -18 357 -24 468 -11 l104 11 66 -61 c425 -390 991 -608
1577 -609 349 0 662 65 967 201 62 28 145 62 183 76 119 44 227 98 291 146 34
26 65 47 68 47 3 0 6 -12 6 -27 0 -38 33 -89 72 -113 37 -23 107 -26 151 -7
28 12 27 12 -17 12 -28 0 -51 6 -61 16 -15 15 -14 22 20 86 34 65 41 72 91 93
58 24 84 18 84 -21 0 -10 5 -21 11 -25 19 -11 0 57 -27 99 -27 42 -65 61 -104
53 l-25 -6 22 16 c13 9 55 55 95 101 l72 85 -34 29 c-40 33 -32 39 11 8 16
-11 33 -17 39 -14 18 11 47 77 78 176 19 62 42 112 66 143 43 57 44 69 10 85
-15 6 -24 14 -22 17 3 2 17 -1 32 -7 20 -10 29 -10 38 -1 15 15 57 15 78 2 12
-8 9 -10 -10 -8 -21 3 -25 -1 -25 -25 1 -15 -2 -27 -6 -27 -14 0 -20 -41 -9
-55 10 -12 9 -15 -5 -15 -14 0 -16 -5 -10 -27 9 -37 24 -53 62 -70 68 -28 138
-3 168 59 9 19 10 26 3 18 -22 -27 -61 -50 -84 -50 -19 0 -22 7 -27 62 -5 54
-2 68 20 105 14 24 29 46 35 49 15 9 57 -16 64 -38 3 -11 8 -17 11 -14 11 10
-19 65 -43 81 l-25 16 45 44 c33 31 49 58 60 97 29 101 48 234 53 378 5 126 3
157 -15 228 -12 45 -35 111 -52 146 -16 35 -30 80 -30 100 l0 36 93 -62 c50
-35 134 -84 185 -110 84 -43 99 -48 161 -48 98 0 155 23 222 89 65 65 89 124
89 216 0 80 -22 144 -70 197 -81 92 -205 128 -322 94 -55 -16 -200 -106 -307
-191 l-56 -45 -3 38 c-11 154 -66 425 -117 572 -14 41 -30 118 -36 170 -6 52
-12 96 -14 98 -1 2 -6 -23 -10 -56 -8 -72 -31 -113 -83 -147 -84 -56 -218 -50
-348 14 -145 72 -255 197 -409 467 -125 219 -340 512 -500 682 -131 140 -185
206 -185 229 0 37 42 55 138 63 l87 6 -70 8 c-38 4 -77 8 -85 9 -8 1 -25 34
-40 79 -44 129 -115 213 -210 248 -20 7 -101 15 -191 17 -391 13 -636 -74
-863 -302 -56 -57 -69 -65 -161 -95 -296 -97 -581 -259 -812 -461 -31 -27 -59
-49 -62 -49 -8 0 -301 317 -301 326 0 4 12 32 27 63 25 50 28 67 28 156 0 88
-3 107 -27 158 -34 71 -65 111 -129 159 -83 62 -199 87 -299 65z m73 -68 c21
-5 35 -14 32 -19 -3 -5 4 -15 15 -23 28 -20 45 -110 31 -162 -20 -75 -60 -123
-130 -157 -52 -25 -71 -29 -105 -24 -22 3 -50 7 -61 9 -11 1 -37 19 -57 39
-33 33 -38 43 -38 85 0 97 78 205 176 243 57 22 84 24 137 9z m2097 -93 c0
-11 -19 -15 -25 -6 -3 5 1 10 9 10 9 0 16 -2 16 -4z m-36 -15 c3 -4 -4 -17
-17 -27 -22 -19 -22 -19 -4 2 9 11 14 24 10 27 -3 4 -4 7 0 7 3 0 8 -4 11 -9z
m-34 -15 c0 -2 -8 -10 -17 -17 -16 -13 -17 -12 -4 4 13 16 21 21 21 13z m-137
-176 c-26 -35 -44 -50 -61 -50 -25 0 -27 -4 27 68 16 20 34 32 48 32 23 0 22
-2 -14 -50z m-154 -293 c-26 -77 -30 -82 -59 -85 -16 -2 -30 -1 -30 2 0 9 48
133 59 154 7 13 18 18 34 15 l24 -5 -28 -81z m971 17 c156 -43 215 -70 264
-125 42 -47 57 -81 48 -107 -3 -10 -7 -10 -19 0 -14 11 -15 9 -11 -20 4 -25 1
-32 -9 -28 -11 5 -13 -3 -10 -32 1 -21 6 -43 10 -49 4 -7 0 -13 -9 -15 -13 -3
-12 -7 7 -32 16 -21 19 -28 8 -24 -12 5 -15 1 -12 -16 3 -12 -2 -28 -10 -34
-12 -10 -13 -8 -9 13 2 14 0 25 -7 25 -5 0 -8 7 -5 15 4 11 2 13 -9 10 -11 -5
-13 0 -10 19 4 17 0 28 -10 32 -10 3 -13 12 -9 22 5 14 3 15 -10 4 -13 -10
-15 -9 -10 14 3 17 -1 31 -10 38 -8 6 -17 18 -21 26 -3 8 -5 1 -3 -15 1 -17 6
-37 10 -43 4 -7 5 -20 2 -28 -3 -9 -3 -21 1 -27 5 -7 8 -21 8 -32 0 -14 6 -19
20 -17 15 2 16 0 7 -6 -11 -7 -10 -12 3 -25 9 -9 13 -21 10 -27 -3 -5 5 -14
18 -19 14 -6 28 -14 32 -20 4 -7 -1 -8 -12 -4 -16 6 -16 5 -5 -10 8 -9 21 -13
30 -10 15 6 15 5 -1 -14 -9 -11 -14 -23 -10 -28 5 -4 2 -5 -5 -1 -7 4 -10 12
-7 17 9 13 -7 11 -26 -4 -19 -14 -36 -147 -19 -147 5 0 10 11 10 24 0 13 6 26
13 29 9 3 9 8 -2 21 -12 14 -12 19 -1 29 7 7 10 8 8 2 -3 -5 0 -16 8 -23 12
-11 14 -10 14 3 0 8 6 14 13 12 6 -1 11 3 10 9 -2 8 6 10 20 6 12 -3 16 -7 9
-10 -6 -2 -12 -12 -12 -23 0 -10 -7 -19 -15 -19 -8 0 -15 -5 -15 -11 0 -6 7
-9 15 -5 8 3 15 3 15 0 0 -2 -12 -9 -26 -14 l-27 -10 24 -21 24 -21 -22 6
c-13 4 -23 5 -23 2 0 -16 14 -36 25 -36 8 0 16 -4 19 -9 4 -5 -3 -7 -14 -4
-14 4 -20 0 -20 -11 0 -9 4 -16 10 -16 5 0 9 -6 7 -12 -1 -7 4 -12 11 -10 8 1
11 -1 8 -6 -7 -11 25 -73 35 -67 4 3 1 17 -6 32 -9 18 -11 29 -4 34 6 3 4 11
-6 19 -14 11 -14 14 1 25 12 8 14 14 6 19 -16 10 -15 29 1 20 6 -4 4 2 -5 13
-10 11 -18 26 -17 34 0 8 4 6 9 -6 8 -18 9 -18 9 -2 1 11 6 15 12 11 8 -4 9 1
4 16 -5 15 -4 20 4 16 6 -4 15 3 20 16 6 13 10 21 11 18 7 -24 7 -39 0 -37 -4
1 -8 -2 -8 -8 0 -5 5 -9 11 -7 7 2 6 -2 -1 -11 -16 -19 -12 -107 6 -107 9 0
11 -7 7 -20 -5 -14 -2 -20 9 -20 9 0 16 -8 17 -17 0 -15 2 -15 9 2 7 17 9 17
9 3 1 -18 38 -44 49 -34 3 3 1 6 -5 6 -6 0 -9 9 -6 20 4 14 0 20 -11 20 -10 0
-14 5 -11 10 3 6 2 10 -4 10 -6 0 -8 7 -5 15 4 9 0 15 -10 15 -9 0 -13 6 -10
14 6 16 -29 40 -40 28 -9 -9 5 30 16 44 5 7 8 16 7 20 -1 5 0 12 1 17 4 12 7
26 9 37 3 23 21 8 22 -17 0 -19 3 -23 7 -13 4 8 14 16 23 16 11 1 15 -6 13
-25 -2 -14 -1 -18 2 -8 3 9 10 15 15 12 15 -10 10 13 -8 30 -13 14 -14 18 -2
25 7 5 16 5 19 1 6 -11 81 -23 130 -23 l38 1 80 -142 c45 -78 79 -144 76 -146
-3 -3 -9 1 -13 8 -12 19 -34 3 -28 -20 3 -11 0 -19 -5 -19 -7 0 -6 -5 1 -14 9
-11 7 -15 -9 -19 -11 -3 -20 -2 -20 3 0 4 -8 11 -17 14 -35 12 -63 33 -56 40
5 4 0 12 -9 17 -10 5 -15 16 -12 24 4 9 0 15 -9 15 -8 0 -18 6 -20 13 -4 8 -6
7 -7 -3 -1 -8 -3 -25 -4 -37 -2 -13 1 -23 6 -23 5 0 7 -4 3 -10 -11 -17 83
-89 97 -74 3 3 8 -2 12 -11 4 -12 0 -14 -19 -11 -14 3 -29 7 -35 11 -5 3 -10
1 -10 -6 0 -7 -7 -4 -15 7 -11 14 -15 16 -15 4 -1 -12 -3 -12 -14 3 -7 9 -17
17 -21 17 -5 0 -17 7 -27 17 -32 29 -30 6 4 -39 36 -49 89 -78 131 -74 15 2
27 -1 27 -5 0 -5 -4 -10 -10 -10 -5 -1 -14 -3 -20 -4 -5 -1 -19 -3 -30 -4 -36
-2 -21 -17 36 -35 42 -13 59 -15 69 -6 16 13 35 5 35 -15 0 -29 125 -135 160
-135 5 0 3 10 -3 23 -12 23 -17 29 -63 81 -14 15 -23 30 -21 32 2 2 22 -5 45
-16 22 -11 46 -20 51 -20 15 0 112 -102 116 -120 1 -8 -2 -21 -8 -27 -6 -9 -6
-13 0 -13 11 0 4 -49 -23 -177 -15 -69 -26 -88 -37 -60 -3 6 -6 -1 -6 -18 -1
-24 -3 -27 -12 -15 -8 11 -9 6 -4 -20 4 -25 3 -31 -4 -20 -5 8 -14 11 -18 6
-15 -15 -8 -31 17 -38 37 -10 -82 1 -270 23 -343 42 -468 84 -642 214 -261
196 -457 519 -514 845 -21 125 -15 314 15 418 24 84 78 195 115 239 l26 30 87
-14 c49 -7 131 -25 183 -39z m-2215 -203 c320 -345 288 -305 267 -331 l-18
-22 -243 261 c-237 256 -243 263 -225 282 10 11 20 18 24 17 3 -2 91 -95 195
-207z m851 -48 c-58 -226 -43 -545 41 -843 147 -526 466 -904 963 -1141 139
-67 153 -74 259 -135 41 -24 79 -45 85 -47 5 -2 6 -9 1 -16 -6 -11 -10 -10
-17 3 -10 17 -38 22 -38 6 0 -5 8 -7 18 -3 13 4 14 3 6 -6 -14 -15 -47 -3 -40
15 3 7 0 16 -6 20 -6 4 -9 3 -5 -2 3 -5 -1 -17 -8 -27 -9 -12 -37 -20 -96 -28
-106 -13 -315 -16 -394 -6 -33 5 -82 9 -109 11 -28 1 -51 7 -54 14 -2 7 -8 10
-13 7 -14 -9 -129 15 -177 37 -24 10 -49 17 -55 15 -7 -2 -19 2 -28 9 -8 8
-29 15 -45 17 -27 3 -67 17 -104 37 -8 5 -14 13 -12 19 1 6 -13 11 -33 11 -20
0 -43 8 -53 18 -30 29 -84 67 -96 67 -17 1 -37 15 -32 24 3 4 -5 7 -17 7 -13
-1 -21 4 -19 12 1 8 -1 11 -6 8 -5 -3 -15 3 -24 12 -8 9 -32 31 -53 47 -20 17
-51 45 -69 63 -18 17 -38 32 -44 32 -7 0 -12 4 -12 10 0 14 -32 50 -45 50 -6
0 -15 15 -20 33 -8 25 -15 31 -32 30 -24 -3 -32 12 -10 20 8 3 6 10 -8 23 -12
11 -32 35 -45 54 -13 19 -41 52 -63 74 -26 26 -37 45 -34 57 3 11 1 17 -3 14
-5 -3 -14 11 -20 30 -6 19 -16 35 -21 35 -5 0 -9 6 -9 14 0 8 -5 16 -10 18 -6
2 -11 20 -12 41 -1 37 -2 38 -14 16 -11 -21 -11 -18 -7 24 4 29 1 52 -6 61
-31 37 -21 244 18 398 21 82 76 226 92 243 6 6 33 -14 75 -56 l65 -65 -25 -45
c-28 -47 -34 -115 -15 -151 17 -31 74 -51 128 -43 54 7 147 55 143 74 -1 7 2
10 8 6 5 -3 10 -1 10 6 0 7 3 10 6 6 7 -7 44 35 63 70 7 14 8 24 1 28 -5 3
-10 11 -10 17 0 7 5 6 14 -1 12 -10 16 -5 21 32 8 53 -4 81 -48 107 -41 25
-73 25 -144 0 -31 -11 -57 -19 -58 -17 0 1 -31 39 -68 83 -37 45 -67 87 -67
92 0 6 15 26 33 46 48 52 57 64 57 76 0 6 42 52 93 103 88 88 259 215 265 197
2 -4 -4 -34 -12 -67z m1796 -75 c35 -46 90 -120 122 -166 50 -72 56 -84 43
-97 -8 -8 -16 -12 -19 -10 -3 3 -94 15 -135 18 -6 0 -9 7 -5 15 3 10 1 13 -6
8 -8 -4 -12 0 -12 11 0 13 -3 14 -8 6 -13 -20 -63 7 -56 30 3 11 0 17 -10 17
-13 0 -14 5 -5 27 8 21 7 28 -6 36 -15 8 -15 10 2 24 13 10 15 16 6 19 -7 3
-13 10 -13 15 0 6 5 7 12 3 7 -4 8 -3 4 4 -4 7 -15 12 -24 12 -14 1 -14 2 3
12 35 20 46 48 19 48 -8 0 -12 5 -9 10 4 6 10 8 15 5 5 -3 11 -1 15 5 3 5 -1
10 -10 10 -9 0 -13 5 -10 10 12 19 22 10 87 -72z m-1460 -115 c3 -65 2 -121
-1 -125 -4 -4 -22 -9 -41 -10 l-35 -3 -3 105 c-4 138 -1 150 42 150 l34 0 4
-117z m1348 -23 c0 -5 -2 -10 -4 -10 -3 0 -8 5 -11 10 -3 6 -1 10 4 10 6 0 11
-4 11 -10z m-25 -21 c-10 -15 -25 -10 -19 6 4 8 10 12 15 9 5 -3 7 -10 4 -15z
m55 -113 c0 -3 -4 -8 -10 -11 -5 -3 -10 -1 -10 4 0 6 5 11 10 11 6 0 10 -2 10
-4z m-1085 -326 c165 -117 309 -222 320 -233 20 -19 20 -19 -15 -13 -19 4
-101 18 -181 31 -81 12 -155 28 -165 34 -16 10 -14 10 11 6 24 -4 26 -3 10 4
-11 5 -31 10 -45 11 -18 2 -20 4 -7 7 16 4 16 7 -7 30 -14 13 -30 22 -36 18
-5 -3 -10 -1 -10 5 0 6 -5 8 -12 4 -8 -5 -9 -2 -5 10 5 12 2 16 -11 14 -9 -2
-21 -7 -25 -13 -5 -5 -6 -1 -2 11 3 13 0 26 -9 33 -27 23 -25 -6 4 -65 16 -32
30 -64 30 -70 0 -15 -90 -286 -102 -304 -8 -12 -8 -12 -4 3 5 16 -27 92 -45
107 -9 8 -59 507 -59 593 l0 39 33 -24 c17 -14 167 -120 332 -238z m1625 -139
c15 -28 13 -30 -14 -18 -13 6 -21 17 -19 24 7 19 21 16 33 -6z m-1589 -328
c23 -32 56 -73 72 -90 l31 -33 -35 -36 -34 -35 -33 38 c-48 55 -122 159 -122
170 0 6 17 17 38 26 20 8 38 15 39 16 1 1 21 -25 44 -56z m-1314 -40 c-3 -10
-5 -4 -5 12 0 17 2 24 5 18 2 -7 2 -21 0 -30z m20 -105 c-3 -7 -5 -2 -5 12 0
14 2 19 5 13 2 -7 2 -19 0 -25z m4431 -160 c23 -11 53 -34 67 -52 27 -35 51
-91 35 -81 -6 3 -10 14 -10 23 0 14 -2 14 -9 3 -7 -11 -16 -8 -42 17 -71 67
-178 63 -249 -8 -37 -37 -42 -49 -55 -138 -5 -33 -10 -41 -20 -32 -7 6 -26 9
-43 8 -16 -1 -37 4 -46 11 -9 7 -25 11 -36 8 -11 -3 -20 -1 -20 5 0 5 -5 6
-11 3 -6 -4 -9 0 -7 10 2 10 -3 20 -11 23 -8 3 -11 0 -7 -6 3 -6 2 -13 -3 -16
-5 -4 -12 -2 -15 3 -12 19 166 165 264 216 71 37 143 38 218 3z m-2789 -42
c25 -18 79 -52 119 -75 l72 -42 -16 -32 c-9 -18 -18 -33 -19 -35 -9 -10 -265
140 -265 156 0 7 52 62 58 62 2 0 25 -15 51 -34z m2774 -63 c88 -44 87 -191
-2 -238 -70 -36 -163 -9 -194 58 -40 83 1 170 92 197 30 9 64 3 104 -17z
m-2231 -177 c57 -13 120 -27 141 -31 29 -5 37 -10 33 -21 -3 -9 -6 -24 -6 -35
0 -17 -5 -18 -42 -13 -127 19 -258 51 -258 64 0 13 19 60 24 60 2 0 51 -11
108 -24z m676 -66 c29 0 32 -3 32 -30 l0 -30 -132 6 c-73 4 -135 8 -137 10 -2
2 0 15 3 30 l7 27 97 -6 c53 -4 112 -7 130 -7z m417 -44 c61 -10 70 -14 67
-31 -2 -11 -5 -21 -5 -21 -2 -2 -64 7 -164 22 -24 4 -33 10 -33 24 0 24 29 25
135 6z m-1215 -369 c13 -5 13 -6 -1 -6 -8 -1 -24 6 -35 15 -19 15 -19 15 1 6
11 -5 27 -12 35 -15z m-2078 -324 c50 -25 125 -71 166 -101 42 -30 70 -47 63
-38 -10 11 -10 16 -2 16 7 0 9 5 5 12 -11 18 55 -30 98 -70 20 -19 35 -39 32
-44 -3 -5 0 -7 8 -6 7 2 12 -3 10 -10 -1 -6 3 -11 10 -10 6 2 28 -21 50 -51
39 -56 48 -78 26 -65 -7 4 -10 4 -6 0 3 -4 10 -7 14 -6 12 2 33 -58 38 -113 4
-43 4 -46 -3 -14 -10 45 -19 57 -20 25 -3 -62 -2 -79 6 -157 5 -47 7 -97 5
-113 -4 -24 -8 -28 -36 -27 -22 1 -25 3 -9 6 12 2 25 13 28 24 13 41 -16 203
-47 259 -14 27 -18 29 -13 10 3 -14 9 -71 12 -127 l6 -103 -33 0 c-28 0 -31 2
-20 15 18 22 6 118 -24 199 -30 80 -82 162 -136 216 l-41 41 -48 -63 c-68 -89
-75 -94 -95 -64 -9 14 -16 28 -16 31 0 2 16 26 35 51 26 33 34 52 29 68 -12
42 -57 96 -111 133 -53 36 -55 37 -69 19 -22 -31 -25 -13 -3 21 l20 32 37 -17
c44 -20 136 -71 175 -96 15 -10 27 -16 27 -13 0 8 -134 95 -193 123 l-58 29
-19 -25 c-11 -14 -20 -31 -20 -38 0 -7 -5 -10 -10 -7 -15 10 18 95 37 95 3 0
45 -21 95 -47z m2938 0 c-35 -5 -35 -5 -11 -17 23 -13 23 -13 2 -19 -12 -3
-21 0 -21 6 -1 7 -7 -3 -15 -20 -8 -18 -21 -33 -30 -33 -8 0 -15 -4 -15 -10 0
-5 -8 -10 -17 -11 -11 0 -13 -3 -5 -6 6 -2 9 -9 6 -14 -3 -6 -11 -5 -20 2 -8
6 -17 9 -21 5 -3 -3 -1 -6 5 -6 21 0 13 -27 -14 -45 -14 -9 -28 -14 -31 -11
-9 8 -31 -18 -26 -31 6 -14 -45 -65 -57 -58 -5 3 -6 -4 -3 -15 4 -14 0 -20
-11 -20 -11 0 -16 -9 -16 -27 0 -16 -5 -35 -10 -43 -6 -10 -7 -3 -3 24 5 33 3
41 -18 57 l-24 18 19 36 c27 49 183 197 237 223 28 14 60 21 89 20 41 -1 42
-2 10 -5z m546 -110 c-5 -41 -74 -198 -83 -189 -2 2 13 37 33 79 20 42 38 94
41 117 3 22 8 40 11 40 2 0 2 -21 -2 -47z m-875 -306 c-10 -9 -11 -8 -5 6 3
10 9 15 12 12 3 -3 0 -11 -7 -18z m-2934 -273 c-8 -7 -131 -65 -126 -60 4 4
30 25 60 46 38 29 55 37 60 28 5 -7 7 -13 6 -14z m1211 -91 c14 -10 32 -29 40
-41 13 -20 13 -22 -2 -16 -9 3 -14 10 -11 14 3 5 1 11 -5 15 -5 3 -10 -3 -10
-13 0 -11 -7 -23 -16 -26 -9 -4 -13 -2 -8 5 4 7 -3 6 -17 -2 -36 -19 -70 -19
-94 -1 -26 21 -26 59 1 79 24 19 89 11 122 -14z m369 -81 c8 -9 12 -11 8 -4
-9 18 -1 15 20 -8 17 -18 17 -20 2 -14 -13 5 -17 1 -17 -17 0 -12 -2 -20 -5
-17 -3 3 -34 -1 -70 -7 -54 -10 -65 -10 -69 2 -3 8 -10 11 -16 8 -6 -3 -10 4
-10 18 0 24 21 49 50 60 25 10 93 -3 107 -21z m373 -37 c17 -9 30 -21 30 -27
0 -9 -3 -9 -12 0 -18 18 -26 14 -21 -12 5 -22 0 -25 -47 -35 -70 -15 -100 -14
-107 5 -5 13 -8 13 -15 2 -7 -9 -8 -8 -4 5 3 10 6 23 6 28 0 18 65 49 103 49
21 0 51 -7 67 -15z m1470 -50 c34 -33 37 -34 73 -24 31 8 43 7 64 -6 13 -9 22
-19 19 -23 -4 -3 -12 0 -18 6 -7 7 -27 12 -44 12 -34 0 -52 -14 -34 -25 5 -3
10 -11 10 -17 0 -7 -13 1 -29 16 l-28 27 -7 -23 c-10 -38 -7 -47 24 -75 17
-14 30 -31 30 -37 0 -5 -16 6 -36 25 -33 32 -35 37 -30 78 5 39 3 48 -21 73
-39 40 -16 35 27 -7z m-1196 -16 c-4 -7 0 -9 13 -5 11 3 27 -1 39 -10 18 -14
18 -15 -4 -4 -21 11 -22 10 -10 -9 15 -25 0 -57 -26 -55 -9 1 -16 -1 -16 -5 0
-7 -22 -10 -68 -12 -23 -1 -62 31 -62 50 0 16 48 44 88 52 54 10 54 10 46 -2z
m302 -121 c-1 -29 -5 -33 -55 -50 -56 -20 -85 -17 -95 9 -13 32 49 71 115 72
34 1 36 -1 35 -31z m204 -74 c0 -8 -4 -13 -9 -10 -5 3 -29 -5 -53 -19 -47 -27
-72 -32 -66 -12 14 40 128 77 128 41z m90 -112 c0 -4 -23 -17 -52 -28 -29 -10
-56 -20 -60 -22 -4 -2 -8 1 -8 7 0 6 17 19 38 30 38 21 82 27 82 13z m-75
-112 c-27 -12 -43 -12 -25 0 8 5 22 9 30 9 10 0 8 -3 -5 -9z"/>
<path d="M4030 4334 c0 -8 5 -12 10 -9 6 4 8 11 5 16 -9 14 -15 11 -15 -7z"/>
<path d="M3523 2665 c0 -8 4 -12 9 -9 5 3 6 10 3 15 -9 13 -12 11 -12 -6z"/>
<path d="M2680 4153 c0 -4 5 -15 10 -23 8 -13 10 -13 10 2 0 9 -4 20 -10 23
-5 3 -10 3 -10 -2z"/>
<path d="M4975 2961 c-3 -5 -2 -12 3 -15 5 -3 9 1 9 9 0 17 -3 19 -12 6z"/>
<path d="M1899 2148 c21 -24 41 -29 41 -11 0 4 -3 3 -7 0 -3 -4 -18 3 -32 15
l-26 23 24 -27z"/>
<path d="M1950 2116 c0 -2 8 -10 18 -17 15 -13 16 -12 3 4 -13 16 -21 21 -21
13z"/>
<path d="M2120 1871 c0 -6 4 -13 10 -16 6 -3 7 1 4 9 -7 18 -14 21 -14 7z"/>
<path d="M3425 1289 c-4 -6 -5 -12 -2 -15 2 -3 7 2 10 11 7 17 1 20 -8 4z"/>
<path d="M4570 5399 c-25 -23 -67 -63 -95 -89 -27 -26 -56 -45 -62 -43 -7 3
-17 -6 -22 -19 -16 -42 -57 -69 -127 -86 l-69 -16 40 -7 c37 -6 38 -6 8 -8
-33 -1 -51 -17 -37 -31 13 -12 128 17 188 47 75 38 106 65 191 164 55 64 75
95 70 107 -5 13 -16 5 -57 -43 -123 -144 -213 -214 -293 -229 -18 -4 -11 1 17
11 25 10 55 26 65 36 11 9 23 14 26 11 4 -4 11 4 16 18 5 14 50 63 100 109 84
77 111 109 93 109 -4 0 -27 -19 -52 -41z"/>
<path d="M4585 5283 c-55 -58 -120 -119 -145 -135 -46 -29 -120 -55 -176 -61
-42 -5 -92 -43 -76 -59 9 -9 18 -6 36 11 14 13 29 21 34 18 13 -9 119 21 172
48 103 52 318 286 262 285 -4 0 -52 -48 -107 -107z"/>
<path d="M4639 5263 c-46 -53 -105 -113 -131 -134 -46 -36 -141 -79 -176 -79
-28 0 -49 -17 -36 -30 8 -8 27 -7 70 6 122 35 176 75 313 231 64 72 79 103 52
103 -5 0 -46 -43 -92 -97z"/>
<path d="M5731 5307 c-14 -37 -14 -37 7 -53 16 -13 16 -14 -3 -8 -20 6 -20 5
-1 -10 11 -9 14 -16 8 -16 -20 0 -14 -26 11 -44 14 -11 16 -15 5 -12 -12 4
-16 -1 -16 -17 1 -12 6 -28 11 -34 7 -9 5 -13 -7 -13 -19 0 -22 -26 -3 -33 7
-3 4 -6 -7 -6 -15 -1 -16 -4 -6 -16 11 -13 10 -14 -5 -9 -15 6 -17 3 -13 -20
4 -17 1 -25 -6 -23 -6 2 -10 23 -9 51 1 27 -2 44 -8 41 -5 -4 -9 1 -9 10 0 19
-66 85 -85 85 -8 0 -19 8 -24 18 -7 11 -10 13 -11 3 0 -11 -3 -11 -15 -1 -8 7
-22 10 -30 6 -16 -6 -21 -36 -5 -36 5 0 7 -7 3 -16 -4 -10 1 -17 15 -21 14 -3
19 -10 14 -21 -5 -15 -3 -15 10 -4 14 11 16 10 11 -9 -5 -19 -3 -21 15 -17 14
4 19 2 16 -7 -3 -7 1 -19 8 -26 13 -14 19 -38 19 -71 0 -10 5 -18 10 -18 5 0
4 -6 -3 -14 -7 -8 -16 -12 -20 -10 -3 2 -9 -4 -11 -13 -4 -17 -5 -17 -6 0 -1
20 -51 25 -51 5 0 -9 -3 -8 -10 2 -7 12 -12 11 -30 -5 -15 -14 -19 -26 -15
-47 6 -24 3 -29 -21 -38 -15 -6 -33 -9 -39 -6 -6 2 -22 -2 -36 -10 -13 -7 -34
-13 -46 -14 -12 0 -34 -6 -50 -14 -44 -21 -95 -39 -123 -41 -30 -2 -80 -25
-80 -37 0 -5 7 -20 16 -33 20 -30 54 -32 79 -5 11 12 31 20 52 20 21 0 36 6
39 15 4 10 20 15 45 15 28 0 39 4 39 15 0 11 11 15 40 15 23 0 40 5 40 11 0 8
12 10 34 6 19 -3 39 0 45 6 9 9 16 9 30 0 16 -10 27 -7 65 18 25 17 46 35 46
40 0 5 4 9 9 9 6 0 3 -16 -5 -35 -18 -43 -18 -49 1 -41 13 4 13 2 5 -14 -14
-25 -13 -30 6 -30 14 0 14 -3 4 -15 -7 -9 -8 -15 -2 -15 5 0 8 -10 4 -22 -4
-17 -2 -20 13 -14 16 6 16 4 4 -10 -8 -9 -14 -29 -15 -45 -1 -21 2 -26 15 -22
9 4 4 -6 -11 -20 -32 -30 -36 -47 -10 -48 13 0 12 -3 -5 -11 -27 -13 -30 -28
-6 -28 15 0 15 -1 -1 -13 -15 -11 -17 -21 -11 -60 7 -46 8 -47 26 -31 11 9 19
26 19 37 0 13 5 17 15 13 9 -3 15 0 15 10 0 9 -5 12 -12 8 -7 -4 -4 3 7 16 12
14 14 20 5 15 -12 -7 -13 -6 -3 7 7 8 9 19 5 23 -4 5 -1 5 6 1 7 -4 12 -1 12
8 0 8 6 17 13 19 10 4 10 6 0 6 -7 1 -13 6 -13 12 0 6 8 8 18 5 14 -5 14 -4
-2 9 -11 8 -15 15 -8 15 12 0 34 68 26 81 -3 5 3 6 13 2 17 -6 17 -5 -1 15
-17 19 -17 22 -3 22 19 0 23 26 5 32 -7 3 -6 7 5 11 11 4 17 1 17 -9 0 -21 27
-47 41 -38 8 4 9 0 5 -14 -5 -15 -1 -25 12 -33 12 -7 18 -19 14 -28 -4 -10 -1
-13 11 -8 12 4 17 1 17 -12 0 -16 26 -45 58 -65 9 -6 12 -1 10 18 -2 14 -7 28
-11 32 -11 12 -8 26 5 18 7 -4 8 -3 4 5 -4 6 -11 9 -16 6 -11 -7 -21 22 -13
42 4 10 2 14 -4 10 -13 -8 -26 20 -16 36 3 7 3 9 -2 5 -4 -4 -14 0 -21 10 -9
13 -9 19 -1 24 8 5 6 8 -5 8 -12 0 -15 5 -11 17 5 12 2 15 -10 10 -21 -8 -21
-3 -1 17 14 15 13 16 -12 16 -21 0 -24 3 -15 14 9 10 8 15 -4 20 -8 3 -15 13
-15 21 0 9 5 13 10 10 6 -3 10 -1 10 4 0 6 -4 11 -10 11 -5 0 6 16 26 35 19
19 33 36 32 37 -1 2 4 19 12 38 23 61 35 120 26 120 -18 0 -46 -22 -46 -35 0
-8 -5 -15 -12 -15 -6 0 -9 -3 -5 -6 3 -4 0 -13 -8 -20 -8 -8 -11 -22 -8 -31 4
-11 2 -14 -5 -9 -7 4 -14 -3 -18 -17 -4 -18 -11 -23 -25 -20 -19 5 -19 6 1 20
17 12 19 18 9 29 -9 11 -8 14 5 14 20 0 20 9 1 34 -8 11 -15 25 -15 30 0 6 5
4 10 -4 5 -8 10 -10 10 -4 0 6 -3 14 -7 18 -7 7 -43 130 -46 158 -1 9 -5 14
-9 12 -4 -3 -8 1 -8 8 0 8 -6 23 -14 34 -14 18 -15 18 -25 -9z m-211 -451 c0
-3 -4 -8 -10 -11 -5 -3 -10 -1 -10 4 0 6 5 11 10 11 6 0 10 -2 10 -4z m310 0
c0 -3 -4 -8 -10 -11 -5 -3 -10 -1 -10 4 0 6 5 11 10 11 6 0 10 -2 10 -4z"/>
<path d="M4736 5295 c-9 -14 -60 -70 -113 -126 -100 -103 -151 -138 -237 -160
-26 -6 -46 -17 -46 -25 0 -18 19 -28 33 -16 7 5 30 15 52 22 72 23 119 52 182
113 78 74 184 202 176 211 -13 13 -31 5 -47 -19z"/>
<path d="M4727 5203 c-41 -49 -82 -94 -90 -101 -9 -8 -13 -21 -10 -29 4 -10 2
-14 -4 -10 -6 4 -30 -8 -52 -27 -22 -19 -69 -44 -103 -55 -83 -28 -96 -37 -81
-52 9 -9 20 -8 46 5 54 25 54 20 4 -28 -26 -24 -47 -49 -47 -55 0 -18 25 -13
44 8 11 12 25 17 34 14 11 -5 14 -2 9 10 -7 19 6 31 58 47 22 7 59 21 82 31
l42 18 -11 37 -10 37 104 105 c56 57 97 101 90 97 -9 -5 -12 -1 -10 10 7 41
-25 20 -95 -62z m-109 -199 c-2 -8 -23 -24 -48 -35 l-45 -19 37 35 c40 37 62
45 56 19z"/>
<path d="M4690 4720 c0 -5 5 -10 10 -10 6 0 10 5 10 10 0 6 -4 10 -10 10 -5 0
-10 -4 -10 -10z"/>
<path d="M4590 4670 c0 -5 5 -10 10 -10 6 0 10 5 10 10 0 6 -4 10 -10 10 -5 0
-10 -4 -10 -10z"/>
<path d="M4734 4639 c-10 -17 13 -36 27 -22 12 12 4 33 -11 33 -5 0 -12 -5
-16 -11z"/>
<path d="M4815 4600 c3 -5 8 -10 11 -10 2 0 4 5 4 10 0 6 -5 10 -11 10 -5 0
-7 -4 -4 -10z"/>
<path d="M4740 4495 c0 -8 7 -15 15 -15 8 0 15 7 15 15 0 8 -7 15 -15 15 -8 0
-15 -7 -15 -15z"/>
<path d="M4950 4490 c0 -5 5 -10 10 -10 6 0 10 5 10 10 0 6 -4 10 -10 10 -5 0
-10 -4 -10 -10z"/>
<path d="M5005 4480 c4 -6 11 -8 16 -5 14 9 11 15 -7 15 -8 0 -12 -5 -9 -10z"/>
<path d="M4870 4440 c0 -5 5 -10 10 -10 6 0 10 5 10 10 0 6 -4 10 -10 10 -5 0
-10 -4 -10 -10z"/>
<path d="M5022 4408 c6 -18 28 -21 28 -4 0 9 -7 16 -16 16 -9 0 -14 -5 -12
-12z"/>
<path d="M5112 4393 c2 -10 10 -18 18 -18 8 0 16 8 18 18 2 12 -3 17 -18 17
-15 0 -20 -5 -18 -17z"/>
<path d="M5052 4319 c2 -6 8 -10 13 -10 5 0 11 4 13 10 2 6 -4 11 -13 11 -9 0
-15 -5 -13 -11z"/>
<path d="M5205 4320 c-3 -5 -1 -10 4 -10 6 0 11 5 11 10 0 6 -2 10 -4 10 -3 0
-8 -4 -11 -10z"/>
<path d="M4974 4289 c-10 -17 13 -36 27 -22 12 12 4 33 -11 33 -5 0 -12 -5
-16 -11z"/>
<path d="M5177 4253 c-12 -11 -8 -23 8 -23 8 0 15 7 15 15 0 16 -12 20 -23 8z"/>
<path d="M5087 4244 c-14 -15 -6 -34 14 -34 14 0 19 5 17 17 -3 18 -20 27 -31
17z"/>
<path d="M4950 4216 c0 -8 4 -17 9 -20 11 -7 33 18 24 27 -12 12 -33 7 -33 -7z"/>
<path d="M5140 4155 c0 -9 5 -15 11 -13 6 2 11 8 11 13 0 5 -5 11 -11 13 -6 2
-11 -4 -11 -13z"/>
<path d="M110 4034 c-6 -15 -9 -85 -8 -158 l3 -130 102 97 102 98 102 -40 c57
-22 104 -39 105 -38 1 1 4 10 6 20 2 15 -29 31 -182 93 -238 96 -218 90 -230
58z"/>
<path d="M5132 4043 c2 -10 10 -18 18 -18 8 0 16 8 18 18 2 12 -3 17 -18 17
-15 0 -20 -5 -18 -17z"/>
<path d="M5250 1569 l-25 -10 25 -19 c28 -22 23 -25 -15 -8 -20 9 -31 8 -50
-2 -27 -14 -33 -36 -12 -43 6 -2 9 -7 5 -11 -3 -4 -16 -2 -28 4 -16 9 -25 9
-36 -1 -24 -20 -15 -45 27 -73 22 -15 38 -30 35 -33 -6 -7 -49 20 -78 49 -24
24 -33 15 -43 -44 -14 -82 62 -176 150 -186 50 -5 124 18 147 45 12 15 11 15
-9 5 -29 -16 -85 -15 -106 1 -16 11 -15 18 8 94 18 58 33 88 50 100 14 10 38
28 53 40 15 13 32 23 38 23 15 0 51 -41 57 -65 4 -18 5 -17 6 3 1 31 -14 59
-57 105 -30 31 -42 37 -77 36 -22 0 -51 -5 -65 -10z"/>
<path d="M5031 1154 c0 -11 3 -14 6 -6 3 7 2 16 -1 19 -3 4 -6 -2 -5 -13z"/>
</g>
</svg>
