<svg width="48" height="48" viewBox="0 0 48 48" fill="none" xmlns="http://www.w3.org/2000/svg">
<path d="M3.07429 18.976C2.96971 19.3489 2.97566 19.7442 3.0914 20.1137C3.20714 20.4833 3.4277 20.8114 3.72629 21.058L13.3363 28.984L10.3063 42.564C10.2177 42.9598 10.2516 43.3731 10.4034 43.7492C10.5551 44.1252 10.8176 44.4463 11.1561 44.6697C11.4945 44.8932 11.8928 45.0084 12.2983 45.0003C12.7037 44.9921 13.0971 44.8609 13.4263 44.624L24.0003 37.018L34.5743 44.618C34.9034 44.8549 35.2968 44.9861 35.7023 44.9943C36.1077 45.0024 36.5061 44.8872 36.8445 44.6637C37.1829 44.4403 37.4454 44.1192 37.5972 43.7432C37.749 43.3671 37.7828 42.9538 37.6943 42.558L34.6643 28.978L44.2743 21.052C44.573 20.8056 44.7938 20.4778 44.9098 20.1084C45.0259 19.739 45.0322 19.3439 44.928 18.9709C44.8238 18.598 44.6136 18.2633 44.3229 18.0075C44.0322 17.7518 43.6735 17.5859 43.2903 17.53L31.6563 15.832L25.8003 4.10601C25.6155 3.79606 25.3534 3.53941 25.0396 3.36117C24.7258 3.18294 24.3712 3.08923 24.0103 3.08923C23.6494 3.08923 23.2947 3.18294 22.981 3.36117C22.6672 3.53941 22.4051 3.79606 22.2203 4.10601L16.3443 15.838L4.71029 17.536C4.32754 17.5921 3.96928 17.758 3.67891 18.0136C3.38853 18.2692 3.17851 18.6035 3.07429 18.976ZM17.9563 19.646C18.2751 19.5995 18.578 19.4767 18.8392 19.288C19.1004 19.0992 19.3121 18.8502 19.4563 18.562L24.0003 9.47201L28.5443 18.562C28.6885 18.8502 28.9002 19.0992 29.1614 19.288C29.4225 19.4767 29.7254 19.5995 30.0443 19.646L38.2443 20.846L31.1723 26.68C30.8878 26.9151 30.6739 27.2243 30.5542 27.5734C30.4345 27.9225 30.4138 28.2979 30.4943 28.658L32.6463 38.31L25.1683 32.93C24.828 32.6852 24.4195 32.5535 24.0003 32.5535C23.5811 32.5535 23.1725 32.6852 22.8323 32.93L15.3543 38.31L17.5063 28.658C17.5868 28.2979 17.566 27.9225 17.4464 27.5734C17.3267 27.2243 17.1128 26.9151 16.8283 26.68L9.75229 20.842L17.9563 19.646Z" fill="black"/>
</svg>
