<svg width="26" height="26" viewBox="0 0 26 26" fill="none" xmlns="http://www.w3.org/2000/svg">
<rect width="26" height="26" rx="13" fill="#E0D8D8"/>
<path d="M18.9862 8.83333C18.9862 9.05435 18.924 9.26631 18.8133 9.42259C18.7026 9.57887 18.5525 9.66667 18.3959 9.66667H7.77094C7.61439 9.66667 7.46425 9.57887 7.35355 9.42259C7.24285 9.26631 7.18066 9.05435 7.18066 8.83333C7.18066 8.61232 7.24285 8.40036 7.35355 8.24408C7.46425 8.0878 7.61439 8 7.77094 8H10.8699L11.201 6.13083C11.233 5.95063 11.3067 5.79067 11.4105 5.67638C11.5142 5.56209 11.642 5.5 11.7736 5.5H14.3933C14.5249 5.5 14.6527 5.56209 14.7564 5.67638C14.8601 5.79067 14.9339 5.95063 14.9658 6.13083L15.297 8H18.3959C18.5525 8 18.7026 8.0878 18.8133 8.24408C18.924 8.40036 18.9862 8.61232 18.9862 8.83333ZM10.583 20.5H15.5839C15.7134 20.5 15.8393 20.4399 15.9423 20.3289C16.0452 20.218 16.1194 20.0623 16.1535 19.8858L17.8057 11.3333H8.36122L10.014 19.8858C10.048 20.0621 10.1222 20.2177 10.225 20.3287C10.3278 20.4397 10.4536 20.4999 10.583 20.5Z" fill="black"/>
</svg>
