<svg width="26" height="26" viewBox="0 0 26 26" fill="none" xmlns="http://www.w3.org/2000/svg">
<rect width="26" height="26" rx="13" fill="#E0D8D8"/>
<path d="M5.49984 12.1667H12.1665V5.50008C12.1665 5.27907 12.2543 5.06711 12.4106 4.91083C12.5669 4.75455 12.7788 4.66675 12.9998 4.66675C13.2209 4.66675 13.4328 4.75455 13.5891 4.91083C13.7454 5.06711 13.8332 5.27907 13.8332 5.50008V12.1667H20.4998C20.7209 12.1667 20.9328 12.2545 21.0891 12.4108C21.2454 12.5671 21.3332 12.7791 21.3332 13.0001C21.3332 13.2211 21.2454 13.4331 21.0891 13.5893C20.9328 13.7456 20.7209 13.8334 20.4998 13.8334H13.8332V20.5001C13.8332 20.7211 13.7454 20.9331 13.5891 21.0893C13.4328 21.2456 13.2209 21.3334 12.9998 21.3334C12.7788 21.3334 12.5669 21.2456 12.4106 21.0893C12.2543 20.9331 12.1665 20.7211 12.1665 20.5001V13.8334H5.49984C5.27882 13.8334 5.06686 13.7456 4.91058 13.5893C4.7543 13.4331 4.6665 13.2211 4.6665 13.0001C4.6665 12.7791 4.7543 12.5671 4.91058 12.4108C5.06686 12.2545 5.27882 12.1667 5.49984 12.1667Z" fill="black"/>
</svg>
