<svg width="65" height="65" viewBox="0 0 65 65" fill="none" xmlns="http://www.w3.org/2000/svg">
  <path d="M58.3523 14.2188H6.64773C5.96208 14.2188 5.30452 14.4565 4.8197 14.8798C4.33487 15.3031 4.0625 15.8771 4.0625 16.4757V52.5868C4.0625 53.1854 4.33487 53.7594 4.8197 54.1827C5.30452 54.606 5.96208 54.8438 6.64773 54.8438H58.3523C59.0379 54.8438 59.6955 54.606 60.1803 54.1827C60.6651 53.7594 60.9375 53.1854 60.9375 52.5868V16.4757C60.9375 15.8771 60.6651 15.3031 60.1803 14.8798C59.6955 14.4565 59.0379 14.2188 58.3523 14.2188ZM12.1594 24.375C12.3288 24.1174 12.5547 23.8914 12.8242 23.7102C13.0938 23.5289 13.4017 23.3959 13.7302 23.3187C14.0588 23.2416 14.4016 23.2218 14.7389 23.2605C15.0762 23.2993 15.4015 23.3957 15.696 23.5444L32.5 31.9312L49.304 23.5444C49.8991 23.2452 50.6061 23.1645 51.2693 23.3203C51.9326 23.476 52.4977 23.8554 52.8406 24.375C53.1834 24.8946 53.2758 25.5117 53.0973 26.0908C52.9189 26.6698 52.4843 27.1632 51.8892 27.4625L33.7926 36.4903C33.4021 36.685 32.9601 36.7875 32.5103 36.7875C32.0606 36.7875 31.6186 36.685 31.2281 36.4903L13.1315 27.4625C12.8346 27.3162 12.5739 27.1201 12.3642 26.8854C12.1545 26.6508 12 26.3823 11.9097 26.0953C11.8193 25.8083 11.7949 25.5086 11.8378 25.2134C11.8806 24.9181 11.9899 24.6332 12.1594 24.375Z" fill="#B8FF20"/>
  </svg>
  