<svg width="34" height="27" viewBox="0 0 34 27" fill="none" xmlns="http://www.w3.org/2000/svg">
<path d="M30.6 0H3.4C1.53 0 0.017 1.51875 0.017 3.375L0 23.625C0 25.4813 1.53 27 3.4 27H30.6C32.47 27 34 25.4813 34 23.625V3.375C34 1.51875 32.47 0 30.6 0ZM29.92 7.17188L17.901 14.6306C17.357 14.9681 16.643 14.9681 16.099 14.6306L4.08 7.17188C3.90954 7.07689 3.76026 6.94855 3.64121 6.79463C3.52216 6.64073 3.4358 6.46444 3.38739 6.27644C3.33895 6.08843 3.32945 5.89265 3.35947 5.7009C3.38948 5.50915 3.45838 5.32543 3.56198 5.16088C3.66559 4.99633 3.80174 4.85436 3.96224 4.74356C4.12272 4.63274 4.30418 4.55542 4.49565 4.51626C4.6871 4.47709 4.88458 4.47689 5.07612 4.51567C5.26767 4.55444 5.44928 4.63139 5.61 4.74187L17 11.8125L28.39 4.74187C28.5507 4.63139 28.7324 4.55444 28.9238 4.51567C29.1154 4.47689 29.3129 4.47709 29.5043 4.51626C29.6958 4.55542 29.8773 4.63274 30.0378 4.74356C30.1983 4.85436 30.3345 4.99633 30.438 5.16088C30.5417 5.32543 30.6105 5.50915 30.6405 5.7009C30.6706 5.89265 30.661 6.08843 30.6126 6.27644C30.5641 6.46444 30.4778 6.64073 30.3588 6.79463C30.2398 6.94855 30.0905 7.07689 29.92 7.17188Z" fill="#B8FF20"/>
</svg>
