<svg width="30" height="31" viewBox="0 0 30 31" fill="none" xmlns="http://www.w3.org/2000/svg">
<path d="M28.35 21.3211C26.3 21.3211 24.3167 20.9767 22.4667 20.3567C21.8833 20.15 21.2333 20.305 20.7833 20.77L18.1667 24.1628C13.45 21.8378 9.03333 17.4461 6.68333 12.4L9.93333 9.54111C10.3833 9.05889 10.5167 8.38722 10.3333 7.78444C9.71667 5.87278 9.4 3.82333 9.4 1.705C9.4 0.775 8.65 0 7.75 0H1.98333C1.08333 0 0 0.413333 0 1.705C0 17.7044 12.8833 31 28.35 31C29.5333 31 30 29.915 30 28.9678V23.0261C30 22.0961 29.25 21.3211 28.35 21.3211Z" fill="#B8FF20"/>
</svg>
