<svg width="65" height="65" viewBox="0 0 65 65" fill="none" xmlns="http://www.w3.org/2000/svg">
  <path d="M52.7181 59.0429H55.8813C57.6264 59.0429 59.041 57.6283 59.041 55.8832V41.6573C59.041 40.0914 57.8941 38.7617 56.3451 38.5318L53.6462 38.1313C50.2326 37.6246 46.9094 36.6308 43.778 35.1803L41.3992 34.0783C40.0207 33.4397 38.3829 33.8726 37.4999 35.1089L36.423 36.6166C35.4791 37.938 33.6772 38.3416 32.3434 37.4154C29.0184 35.1065 26.1043 32.193 23.7944 28.8673C22.8679 27.5334 23.2716 25.7312 24.5932 24.7874L26.1002 23.7112C27.3367 22.8282 27.7696 21.1902 27.1309 19.8115L26.0277 17.4305C24.5771 14.2994 23.5833 10.9765 23.0766 7.56316L22.6759 4.86371C22.446 3.31482 21.1163 2.16797 19.5504 2.16797H5.32577C3.5807 2.16797 2.16605 3.58262 2.16605 5.32769V8.49193C2.13534 36.9498 24.0004 59.0837 52.7181 59.0429Z" fill="#B8FF20"/>
  </svg>
  
