<svg width="65" height="65" viewBox="0 0 65 65" fill="none" xmlns="http://www.w3.org/2000/svg">
  <g clip-path="url(#clip0_15013_6357)">
  <path d="M32.5 65C50.4493 65 65 50.4493 65 32.5C65 14.5507 50.4493 0 32.5 0C14.5507 0 0 14.5507 0 32.5C0 50.4493 14.5507 65 32.5 65Z" fill="#B8FF20"/>
  <path d="M52.1677 18.5985L46.1976 46.7534C45.7472 48.7404 44.5726 49.2351 42.9035 48.2989L33.807 41.5958L29.4177 45.8173C28.932 46.3029 28.5258 46.7092 27.5896 46.7092L28.2432 37.445L45.1025 22.2107C45.8356 21.5572 44.9435 21.195 43.9633 21.8485L23.1209 34.9722L14.1481 32.1637C12.1962 31.5544 12.1609 30.212 14.5543 29.2759L49.6508 15.7548C51.2758 15.1455 52.6976 16.1169 52.1677 18.5985Z" fill="white"/>
  </g>
  <defs>
  <clipPath id="clip0_15013_6357">
  <rect width="65" height="65" fill="white"/>
  </clipPath>
  </defs>
  </svg>
  