<svg width="76" height="76" viewBox="0 0 76 76" fill="none" xmlns="http://www.w3.org/2000/svg">
<g clip-path="url(#clip0_13982_3782)">
<path d="M38 76C58.9868 76 76 58.9868 76 38C76 17.0132 58.9868 0 38 0C17.0132 0 0 17.0132 0 38C0 58.9868 17.0132 76 38 76Z" fill="#B8FF20"/>
<path d="M60.996 21.7469L54.0156 54.6664C53.489 56.9897 52.1156 57.5681 50.164 56.4734L39.5282 48.636L34.396 53.5719C33.8282 54.1397 33.3532 54.6147 32.2586 54.6147L33.0227 43.7827L52.7351 25.9703C53.5923 25.2062 52.5493 24.7827 51.4032 25.5469L27.0336 40.8914L16.5423 37.6077C14.2602 36.8953 14.2188 35.3258 17.0173 34.2312L58.0532 18.4219C59.9532 17.7095 61.6156 18.8453 60.996 21.7469Z" fill="white"/>
</g>
<defs>
<clipPath id="clip0_13982_3782">
<rect width="76" height="76" fill="white"/>
</clipPath>
</defs>
</svg>
