<svg width="76" height="76" viewBox="0 0 76 76" fill="none" xmlns="http://www.w3.org/2000/svg">
<path d="M38 76C58.9868 76 76 58.9868 76 38C76 17.0132 58.9868 0 38 0C17.0132 0 0 17.0132 0 38C0 58.9868 17.0132 76 38 76Z" fill="#B8FF20"/>
<path d="M63.2348 22.9976C61.3954 23.8126 59.4194 24.3635 57.3421 24.6123C59.4855 23.3297 61.0891 21.3112 61.8536 18.9333C59.8399 20.1294 57.6359 20.9714 55.3374 21.4226C53.7918 19.7722 51.7446 18.6785 49.5136 18.3109C47.2827 17.9433 44.9928 18.3226 42.9996 19.3898C41.0063 20.4571 39.421 22.1525 38.49 24.213C37.559 26.2734 37.3343 28.5836 37.8508 30.7848C33.7704 30.5799 29.7786 29.5194 26.1345 27.672C22.4905 25.8245 19.2757 23.2314 16.6987 20.0612C15.8174 21.5812 15.3108 23.3434 15.3108 25.2203C15.3098 26.91 15.7259 28.5737 16.522 30.064C17.3184 31.5542 18.4701 32.8248 19.8751 33.7632C18.2456 33.7113 16.6521 33.271 15.2271 32.479V32.6111C15.2269 34.9808 16.0466 37.2777 17.547 39.1118C19.0475 40.946 21.1366 42.2045 23.4593 42.6739C21.9476 43.0829 20.3628 43.1432 18.8243 42.8501C19.4798 44.8891 20.7564 46.6723 22.4755 47.9497C24.1946 49.2272 26.27 49.935 28.4114 49.9743C24.7763 52.828 20.2868 54.3759 15.6654 54.3691C14.8468 54.3693 14.0289 54.3215 13.2158 54.2259C17.9069 57.2421 23.3675 58.8429 28.9446 58.8366C47.8233 58.8366 58.1439 43.2004 58.1439 29.6394C58.1439 29.1987 58.1329 28.7538 58.113 28.3132C60.1206 26.8614 61.8534 25.0637 63.2305 23.0042L63.2348 22.9976Z" fill="white"/>
</svg>
