<svg width="65" height="65" viewBox="0 0 65 65" fill="none" xmlns="http://www.w3.org/2000/svg">
  <path d="M32.5 65C50.4493 65 65 50.4493 65 32.5C65 14.5507 50.4493 0 32.5 0C14.5507 0 0 14.5507 0 32.5C0 50.4493 14.5507 65 32.5 65Z" fill="#B8FF20"/>
  <path d="M54.1583 19.5197C52.5851 20.2168 50.8951 20.6879 49.1185 20.9007C50.9517 19.8037 52.3232 18.0774 52.977 16.0436C51.2548 17.0667 49.3698 17.7868 47.4039 18.1727C46.082 16.7612 44.3311 15.8257 42.4231 15.5113C40.5151 15.1969 38.5566 15.5214 36.8519 16.4341C35.1471 17.3469 33.7912 18.797 32.995 20.5592C32.1987 22.3214 32.0066 24.2972 32.4483 26.1798C28.9585 26.0046 25.5444 25.0976 22.4278 23.5175C19.3112 21.9374 16.5617 19.7197 14.3576 17.0083C13.604 18.3083 13.1706 19.8155 13.1706 21.4207C13.1698 22.8658 13.5257 24.2887 14.2066 25.5633C14.8877 26.8379 15.8727 27.9245 17.0744 28.7271C15.6807 28.6827 14.3178 28.3062 13.099 27.6288V27.7418C13.0989 29.7685 13.8 31.7329 15.0832 33.3016C16.3666 34.8703 18.1532 35.9466 20.1398 36.3481C18.8469 36.698 17.4915 36.7495 16.1757 36.4989C16.7362 38.2427 17.8281 39.7678 19.2984 40.8604C20.7686 41.9529 22.5437 42.5583 24.3751 42.5919C21.2662 45.0325 17.4265 46.3564 13.474 46.3506C12.7738 46.3507 12.0743 46.3099 11.3789 46.2281C15.391 48.8077 20.0613 50.1768 24.8311 50.1715C40.9774 50.1715 49.8043 36.7984 49.8043 25.2002C49.8043 24.8233 49.7948 24.4428 49.7778 24.0659C51.4948 22.8243 52.9768 21.2867 54.1546 19.5254L54.1583 19.5197Z" fill="white"/>
  </svg>
  