<svg id="Layer_1" width="65"  height="65"  data-name="Layer 1" xmlns="http://www.w3.org/2000/svg" viewBox="0 0 25 25"><defs><style>.cls-1{fill:#B8FF20;}.cls-2{fill:#fff;}</style></defs><title>vk</title><circle class="cls-1" cx="12.5" cy="12.5" r="12"/><path class="cls-2" d="M20.091,18.425a2.526,2.526,0,0,1-.276.024c-.905,0-1.811,0-2.716,0a.5.5,0,0,1-.324-.121,7.065,7.065,0,0,1-.558-.478c-.454-.448-.893-.909-1.344-1.363-.14-.142-.29-.273-.435-.4A.363.363,0,0,0,14.167,16a.3.3,0,0,0-.295.184,1.14,1.14,0,0,0-.1.349c-.022.215-.024.432-.03.647a2.657,2.657,0,0,1-.078.716,1.269,1.269,0,0,1-.126.3.485.485,0,0,1-.429.252c-.789.018-1.58.029-2.369-.021a1.094,1.094,0,0,1-.41-.121,6.663,6.663,0,0,1-1.945-1.441c-.684-.73-1.307-1.511-1.927-2.291a24.086,24.086,0,0,1-2.208-3.354A9.336,9.336,0,0,1,3.616,9.9a1.069,1.069,0,0,1-.022-.684.756.756,0,0,1,.088-.194.276.276,0,0,1,.242-.139h.113c.82,0,1.642,0,2.463,0a.516.516,0,0,1,.394.161,3.382,3.382,0,0,1,.5.684c.152.266.306.537.442.813A12.82,12.82,0,0,0,8.89,12.268c.188.271.392.528.59.793a.441.441,0,0,0,.362.175c.143,0,.2-.054.2-.2,0-.035,0-.067,0-.1q0-1.389,0-2.777c0-.073,0-.145,0-.218a.3.3,0,0,0-.269-.293c-.075-.013-.149-.021-.225-.031A.345.345,0,0,1,9.2,9.26a.678.678,0,0,1,.462-.746,1.207,1.207,0,0,1,.436-.062h2.193c.149,0,.3-.007.445.006a2.459,2.459,0,0,1,.459.077.705.705,0,0,1,.541.647,2.171,2.171,0,0,1,.011.241c0,.562,0,1.125,0,1.686V12.9a.611.611,0,0,0,.022.174.257.257,0,0,0,.412.126,3.182,3.182,0,0,0,1.055-1.322c.228-.481.424-.977.638-1.465.169-.387.346-.77.524-1.154a2.227,2.227,0,0,1,.169-.268.248.248,0,0,1,.225-.11q1.593,0,3.185,0a.774.774,0,0,1,.627.3.478.478,0,0,1,.094.244,1.712,1.712,0,0,1-.279,1.133,6.407,6.407,0,0,1-.659.928,20,20,0,0,0-1.441,1.867c-.113.169-.207.349-.311.523a.29.29,0,0,0,.029.362c.193.231.378.47.58.69.48.526.968,1.038,1.451,1.559.155.169.295.348.437.528.049.059.084.126.129.186a.827.827,0,0,1-.542,1.223Zm0,0"/></svg>