<svg width="64" height="64" viewBox="0 0 64 64" fill="none" xmlns="http://www.w3.org/2000/svg">
<path d="M21.312 9.31194C20.9373 9.72927 20.75 10.1879 20.75 10.6879C20.75 11.1879 20.9373 11.6253 21.312 11.9999L40.812 31.9999L21.312 51.9999C20.9373 52.3746 20.75 52.8119 20.75 53.3119C20.75 53.8119 20.9373 54.2493 21.312 54.6239C21.6867 54.9986 22.124 55.1859 22.624 55.1859C23.124 55.1859 23.5613 55.0193 23.936 54.6859L44.624 33.3739C44.9987 32.9993 45.186 32.5406 45.186 31.9979C45.186 31.4553 44.9987 30.9966 44.624 30.6219L23.936 9.30994C23.5613 8.9766 23.124 8.80994 22.624 8.80994C22.124 8.80994 21.6867 8.9766 21.312 9.30994V9.31194Z" fill="white" fillOpacity="0.96"/>
</svg>
